<svg id="Слой_2" data-name="Слой 2" xmlns="http://www.w3.org/2000/svg" viewBox="0 0 3200 2000"><defs><style>.cls-1{fill:#fff;}.cls-2{fill:#edf4ff;}.cls-3,.cls-9{fill:#c4d9ed;}.cls-4{fill:#d5e7f7;}.cls-5{fill:#dceaf9;}.cls-6{opacity:0.8;}.cls-7{fill:#adc9e0;}.cls-8{fill:#ebf2f9;}.cls-24,.cls-9{opacity:0.4;}.cls-10{fill:#2e3552;}.cls-11{fill:#a8d29f;}.cls-12{fill:#f99746;}.cls-13{fill:#699ff0;}.cls-14{fill:#ff9136;}.cls-15{fill:#2b478b;}.cls-16{fill:#85b2ef;}.cls-17{fill:#afcdfb;}.cls-18{fill:#578ddd;}.cls-19{fill:#ed7d2b;}.cls-20{fill:#5c96e3;}.cls-21{fill:#d3671e;}.cls-22{fill:#f1a34f;}.cls-23{fill:#e78b37;}.cls-24{fill:#d86713;}.cls-25{fill:#ffb27d;}.cls-26{fill:#ed975d;}.cls-27{fill:#6bb7bf;}.cls-28{fill:#1c4575;}.cls-29{fill:#5aa9ad;}</style></defs><title>5227</title><rect class="cls-1" width="3200" height="2000"/><path class="cls-2" d="M2957,1272.63c-.12,5.88-.24,11.75-.6,17.5s-.48,11.38-1,17.14a698.81,698.81,0,0,1-8.62,71.54c-1.2,6.82-2.4,13.54-3.72,20.12-.24,1.56-.6,3.12-.84,4.56l-.24.84c-.84,4.07-1.67,8-2.51,12.1-1.56,7.07-3.24,14.14-4.92,21-.36,1.32-.71,2.52-.95,3.84-4.56,18-9.47,34.86-14.62,50.69l-2.52,7.9c-2.28,7-4.55,13.54-6.83,20-1.68,4.68-3.36,9.11-4.91,13.42-8.75,23.25-17.26,42.55-24.09,57.16-6.35,13.54-11.74,24.93-14.5,30.68-1.2,2.52-1.92,4-1.92,4s-1328.56.24-2061.92.35H329.75c0-.11-.12-.11-.12-.11-1.68-1.32-3.24-2.52-4.8-3.84h-.12c-.72-.6-1.44-1.08-2-1.68L287.8,1582a167.58,167.58,0,0,1-18.69-34.63c-9.23-22.53-13.66-47-13.66-72.5,0-1.2,0-2.52.12-3.84,0-2.27.12-4.67.12-7l.36-6.11c.6-7.43,1.44-14.86,2.64-22.28,0-.25.12-.48.12-.72a37.16,37.16,0,0,0,.6-3.84c.24-1.56.59-3.11.95-4.68,1.08-5.51,2.4-11,3.84-16.65.24-1.32.6-2.64,1-3.95.48-1.56.84-3.12,1.43-4.68,1.32-4.91,3-9.82,4.68-14.86,3.23-9.59,7.07-19.17,11.38-28.88a18.34,18.34,0,0,1,1-2.27c3.95-8.75,8.27-17.38,12.94-26.13a451.34,451.34,0,0,1,23.85-39.18c1.92-2.76,3.83-5.51,5.75-8.15a494,494,0,0,1,32-40.62A605,605,0,0,1,404,1193.67c3.72-3.48,7.43-6.84,11.15-10.19.83-.72,1.67-1.44,2.51-2.28,2.16-1.79,4.32-3.71,6.47-5.51,9.11-7.91,18-15.34,26.72-22.53,4.44-3.59,8.75-7.07,13.07-10.54,8.5-6.83,16.77-13.54,24.68-20,24.33-20,45.9-38.82,62.91-60A190.63,190.63,0,0,0,567.37,1040a170.63,170.63,0,0,0,19.41-47.21c1-4.43,1.92-9,2.64-13.66a216.28,216.28,0,0,0,2.87-41.58,317.71,317.71,0,0,0-2.87-38.35c-.36-2.87-.84-5.87-1.32-9A546.46,546.46,0,0,0,576.6,835q-2.16-8.44-4.68-17.25c-2.87-10.19-5.15-20.26-6.95-30.08a285.52,285.52,0,0,1-4.67-55.24,251.29,251.29,0,0,1,4.67-47v-.24a280.65,280.65,0,0,1,11.15-41.7c57.4-163.21,252.72-259.67,304.61-281.24,73.93-30.8,161.53-48,252.48-54.4,7.43-.48,14.86-1,22.29-1.32,21-1.08,42.18-1.56,63.27-1.56,8.63,0,17.14.12,25.64.24,14.26.36,28.4.84,42.66,1.68,13.18.72,26.25,1.56,39.31,2.64a1293,1293,0,0,1,156.14,22.53,854.31,854.31,0,0,1,121.62,34.62l.12.12c86.52,32,152,73.82,204.2,117.32,12.1,10.06,23.6,20.25,34.39,30.44,1.44,1.31,3,2.75,4.43,4.19,3.36,3.11,6.59,6.23,9.83,9.47,1.43,1.43,3,2.87,4.43,4.31,9.47,9.47,18.58,18.93,27.2,28.16,4.32,4.67,8.63,9.35,12.82,13.9,22.77,25.16,42.9,48.65,62.08,68.9,2.39,2.64,4.79,5,7.19,7.55,33,33.56,63.51,56.32,100.89,58.84,23.49,1.55,50.93-2.4,81.73-8.39,3.11-.6,6.11-1.2,9.23-1.92,47.33-9.46,102.45-22.89,163.68-28.51,79.09-7.32,168.61-1.57,265.19,42.29,3.12,1.44,6.11,2.88,9.23,4.32,14.14,6.83,28.4,14.38,42.78,22.89,3,1.67,6,3.47,9,5.27q21.93,13.47,44.46,29.95a6.68,6.68,0,0,1,1.08.85c6.47,4.67,12.94,9.7,19.41,14.85,7.55,6,15.22,12.23,22.89,18.81,18.45,15.94,37.27,33.44,56.08,52.85,13.66,14,26.36,28.16,37.87,42.54,8,9.83,15.57,19.78,22.52,29.72,1.32,1.8,2.52,3.6,3.84,5.39A594.5,594.5,0,0,1,2893,994c1.08,2.16,2.28,4.43,3.48,6.59a543.68,543.68,0,0,1,31.27,74.17c.72,2.16,1.44,4.19,2.16,6.24,3.59,11.14,6.71,22.28,9.59,33.43,3.83,15.22,6.95,30.31,9.46,45.41A607.35,607.35,0,0,1,2957,1272.63Z"/><path class="cls-3" d="M757.66,685.46v818.09H589.42V979.17a216.28,216.28,0,0,0,2.87-41.58,317.71,317.71,0,0,0-2.87-38.35V685.46Z"/><path class="cls-4" d="M719.79,685.46v818.09H551.55v-441A190.63,190.63,0,0,0,567.37,1040a170.63,170.63,0,0,0,19.41-47.21c1-4.43,1.92-9,2.64-13.66a216.28,216.28,0,0,0,2.87-41.58,317.71,317.71,0,0,0-2.87-38.35c-.36-2.87-.84-5.87-1.32-9A546.46,546.46,0,0,0,576.6,835q-2.16-8.44-4.68-17.25c-2.87-10.19-5.15-20.26-6.95-30.08a285.52,285.52,0,0,1-4.67-55.24,251.29,251.29,0,0,1,4.67-47Z"/><path class="cls-3" d="M565,685.46a251.29,251.29,0,0,0-4.67,47H719.79V685.22H565Z"/><path class="cls-3" d="M719.79,787.68V835H576.6q-2.16-8.44-4.68-17.25c-2.87-10.19-5.15-20.26-6.95-30.08Z"/><path class="cls-3" d="M719.79,890.25v47.34H592.29a317.71,317.71,0,0,0-2.87-38.35c-.36-2.87-.84-5.87-1.32-9Z"/><path class="cls-3" d="M719.79,992.83V1040H567.37a170.63,170.63,0,0,0,19.41-47.21Z"/><rect class="cls-3" x="551.61" y="1095.33" width="168.19" height="47.27"/><rect class="cls-3" x="551.61" y="1197.86" width="168.19" height="47.27"/><rect class="cls-3" x="551.61" y="1300.39" width="168.19" height="47.27"/><rect class="cls-3" x="551.61" y="1402.92" width="168.19" height="47.27"/><path class="cls-3" d="M488.64,1122.6v381H320.4V1289.89c1.92-2.76,3.83-5.51,5.75-8.15a494,494,0,0,1,32-40.62A605,605,0,0,1,404,1193.67c3.72-3.48,7.43-6.84,11.15-10.19.83-.72,1.67-1.44,2.51-2.28,2.16-1.79,4.32-3.71,6.47-5.51,9.11-7.91,18-15.34,26.72-22.53,4.44-3.59,8.75-7.07,13.07-10.54C472.46,1135.79,480.73,1129.08,488.64,1122.6Z"/><path class="cls-4" d="M450.89,1153.16v350.39H282.65V1357.47a18.34,18.34,0,0,1,1-2.27c3.95-8.75,8.27-17.38,12.94-26.13a451.34,451.34,0,0,1,23.85-39.18c1.92-2.76,3.83-5.51,5.75-8.15a494,494,0,0,1,32-40.62A605,605,0,0,1,404,1193.67c3.72-3.48,7.43-6.84,11.15-10.19.83-.72,1.67-1.44,2.51-2.28,2.16-1.79,4.32-3.71,6.47-5.51C433.28,1167.78,442.15,1160.35,450.89,1153.16Z"/><path class="cls-3" d="M450.89,1153.16v40.51H404c3.72-3.48,7.43-6.84,11.15-10.19.83-.72,1.67-1.44,2.51-2.28,2.16-1.79,4.32-3.71,6.47-5.51C433.28,1167.78,442.15,1160.35,450.89,1153.16Z"/><path class="cls-3" d="M450.89,1241.12v40.62H326.15a494,494,0,0,1,32-40.62Z"/><path class="cls-3" d="M450.89,1329.07v40.63H282.65v-12.23a18.34,18.34,0,0,1,1-2.27c3.95-8.75,8.27-17.38,12.94-26.13Z"/><rect class="cls-3" x="282.67" y="1417.16" width="168.19" height="40.58"/><rect class="cls-5" x="778.22" y="1478.43" width="70.45" height="102.73"/><polygon class="cls-4" points="1814.76 1070.11 1814.76 1006.66 1795.5 1006.66 1795.5 897.57 1692.23 897.57 1692.23 1006.66 1595.68 1006.66 1595.68 828.9 1489.15 828.9 1489.15 944.29 1464.85 944.29 1464.85 806.52 1358.31 806.52 1358.31 1064.83 1223.57 1064.83 1223.57 1215.46 1173.22 1215.46 1173.22 1253.41 1057.59 1253.41 1057.59 1188.07 991.19 1188.07 991.19 1010.51 909.17 1010.51 909.17 1338.28 827.16 1338.28 827.16 1623.49 909.17 1623.49 979.48 1623.49 991.19 1623.49 1057.59 1623.49 1095.12 1623.49 1155.22 1623.49 1173.22 1623.49 1223.57 1623.49 1270.86 1623.49 1358.31 1623.49 1385.09 1623.49 1438.37 1623.49 1464.85 1623.49 1489.15 1623.49 1544.91 1623.49 1582.88 1623.49 1595.68 1623.49 1692.23 1623.49 1793.78 1623.49 1795.5 1623.49 1814.76 1623.49 1897.04 1623.49 1897.04 1070.11 1814.76 1070.11"/><rect class="cls-3" x="1358.25" y="823.96" width="106.6" height="26.32"/><rect class="cls-3" x="1358.25" y="873.4" width="106.6" height="26.32"/><rect class="cls-3" x="1358.25" y="917.89" width="106.6" height="26.32"/><rect class="cls-3" x="1489.06" y="917.89" width="106.6" height="26.32"/><rect class="cls-3" x="1489.06" y="873.4" width="106.6" height="26.32"/><rect class="cls-3" x="1489.06" y="828.99" width="106.6" height="26.32"/><rect class="cls-3" x="1358.25" y="961.02" width="237.43" height="26.32"/><rect class="cls-3" x="1358.25" y="1004.15" width="237.43" height="26.32"/><rect class="cls-3" x="909.21" y="1010.53" width="82.74" height="40.63"/><rect class="cls-3" x="909.21" y="1070.94" width="82.74" height="40.63"/><rect class="cls-3" x="909.21" y="1131.36" width="82.74" height="40.63"/><rect class="cls-3" x="909.21" y="1194.69" width="82.74" height="40.63"/><rect class="cls-3" x="909.21" y="1256.06" width="82.74" height="40.63"/><rect class="cls-3" x="909.21" y="1317.43" width="82.74" height="40.63"/><rect class="cls-3" x="909.21" y="1381.64" width="82.74" height="40.63"/><rect class="cls-3" x="1358.25" y="1046.3" width="237.43" height="16.71"/><rect class="cls-3" x="990.8" y="1010.53" width="30.51" height="177.54"/><rect class="cls-3" x="1057.59" y="1188.07" width="61.36" height="65.34"/><polygon class="cls-3" points="1595.65 828.99 1616.83 828.99 1616.83 1006.66 1595.68 1006.66 1595.65 828.99"/><rect class="cls-3" x="1464.85" y="806.52" width="13" height="137.68"/><g class="cls-6"><rect class="cls-3" x="1245.59" y="1090.75" width="18.06" height="25.46"/><rect class="cls-3" x="1279.36" y="1090.75" width="18.06" height="25.46"/><rect class="cls-3" x="1312.38" y="1090.75" width="18.06" height="25.46"/><rect class="cls-3" x="1343.69" y="1090.75" width="18.06" height="25.46"/><rect class="cls-3" x="1375.59" y="1090.75" width="18.06" height="25.46"/><rect class="cls-3" x="1407.86" y="1090.75" width="18.06" height="25.46"/><rect class="cls-3" x="1441.64" y="1090.75" width="18.06" height="25.46"/><rect class="cls-3" x="1474.66" y="1090.75" width="18.06" height="25.46"/><rect class="cls-3" x="1505.96" y="1090.75" width="18.06" height="25.46"/><rect class="cls-3" x="1537.87" y="1090.75" width="18.06" height="25.46"/><rect class="cls-3" x="1571.12" y="1090.75" width="18.06" height="25.46"/><rect class="cls-3" x="1604.9" y="1090.75" width="18.06" height="25.46"/><rect class="cls-3" x="1637.91" y="1090.75" width="18.06" height="25.46"/><rect class="cls-3" x="1669.22" y="1090.75" width="18.06" height="25.46"/><rect class="cls-3" x="1701.13" y="1090.75" width="18.06" height="25.46"/><rect class="cls-3" x="1733.4" y="1090.75" width="18.06" height="25.46"/><rect class="cls-3" x="1767.17" y="1090.75" width="18.06" height="25.46"/><rect class="cls-3" x="1800.19" y="1090.75" width="18.06" height="25.46"/><rect class="cls-3" x="1831.5" y="1090.75" width="18.06" height="25.46"/><rect class="cls-3" x="1863.41" y="1090.75" width="18.06" height="25.46"/><rect class="cls-3" x="1245.59" y="1135.67" width="18.06" height="25.46"/><rect class="cls-3" x="1279.36" y="1135.67" width="18.06" height="25.46"/><rect class="cls-3" x="1312.38" y="1135.67" width="18.06" height="25.46"/><rect class="cls-3" x="1343.69" y="1135.67" width="18.06" height="25.46"/><rect class="cls-3" x="1375.59" y="1135.67" width="18.06" height="25.46"/><rect class="cls-3" x="1407.86" y="1135.67" width="18.06" height="25.46"/><rect class="cls-3" x="1441.64" y="1135.67" width="18.06" height="25.46"/><rect class="cls-3" x="1474.66" y="1135.67" width="18.06" height="25.46"/><rect class="cls-3" x="1505.96" y="1135.67" width="18.06" height="25.46"/><rect class="cls-3" x="1537.87" y="1135.67" width="18.06" height="25.46"/><rect class="cls-3" x="1571.12" y="1135.67" width="18.06" height="25.46"/><rect class="cls-3" x="1604.9" y="1135.67" width="18.06" height="25.46"/><rect class="cls-3" x="1637.91" y="1135.67" width="18.06" height="25.46"/><rect class="cls-3" x="1669.22" y="1135.67" width="18.06" height="25.46"/><rect class="cls-3" x="1701.13" y="1135.67" width="18.06" height="25.46"/><rect class="cls-3" x="1733.4" y="1135.67" width="18.06" height="25.46"/><rect class="cls-3" x="1767.17" y="1135.67" width="18.06" height="25.46"/><rect class="cls-3" x="1800.19" y="1135.67" width="18.06" height="25.46"/><rect class="cls-3" x="1831.5" y="1135.67" width="18.06" height="25.46"/><rect class="cls-3" x="1863.41" y="1135.67" width="18.06" height="25.46"/><rect class="cls-3" x="1245.59" y="1179.91" width="18.06" height="25.46"/><rect class="cls-3" x="1279.36" y="1179.91" width="18.06" height="25.46"/><rect class="cls-3" x="1312.38" y="1179.91" width="18.06" height="25.46"/><rect class="cls-3" x="1343.69" y="1179.91" width="18.06" height="25.46"/><rect class="cls-3" x="1375.59" y="1179.91" width="18.06" height="25.46"/><rect class="cls-3" x="1407.86" y="1179.91" width="18.06" height="25.46"/><rect class="cls-3" x="1441.64" y="1179.91" width="18.06" height="25.46"/><rect class="cls-3" x="1474.66" y="1179.91" width="18.06" height="25.46"/><rect class="cls-3" x="1505.96" y="1179.91" width="18.06" height="25.46"/><rect class="cls-3" x="1537.87" y="1179.91" width="18.06" height="25.46"/><rect class="cls-3" x="1571.12" y="1179.91" width="18.06" height="25.46"/><rect class="cls-3" x="1604.9" y="1179.91" width="18.06" height="25.46"/><rect class="cls-3" x="1637.91" y="1179.91" width="18.06" height="25.46"/><rect class="cls-3" x="1669.22" y="1179.91" width="18.06" height="25.46"/><rect class="cls-3" x="1701.13" y="1179.91" width="18.06" height="25.46"/><rect class="cls-3" x="1733.4" y="1179.91" width="18.06" height="25.46"/><rect class="cls-3" x="1767.17" y="1179.91" width="18.06" height="25.46"/><rect class="cls-3" x="1800.19" y="1179.91" width="18.06" height="25.46"/><rect class="cls-3" x="1831.5" y="1179.91" width="18.06" height="25.46"/><rect class="cls-3" x="1863.41" y="1179.91" width="18.06" height="25.46"/><rect class="cls-3" x="1245.59" y="1226.91" width="18.06" height="25.46"/><rect class="cls-3" x="1279.36" y="1226.91" width="18.06" height="25.46"/><rect class="cls-3" x="1312.38" y="1226.91" width="18.06" height="25.46"/><rect class="cls-3" x="1343.69" y="1226.91" width="18.06" height="25.46"/><rect class="cls-3" x="1375.59" y="1226.91" width="18.06" height="25.46"/><rect class="cls-3" x="1407.86" y="1226.91" width="18.06" height="25.46"/><rect class="cls-3" x="1441.64" y="1226.91" width="18.06" height="25.46"/><rect class="cls-3" x="1474.66" y="1226.91" width="18.06" height="25.46"/><rect class="cls-3" x="1505.96" y="1226.91" width="18.06" height="25.46"/><rect class="cls-3" x="1537.87" y="1226.91" width="18.06" height="25.46"/><rect class="cls-3" x="1571.12" y="1226.91" width="18.06" height="25.46"/><rect class="cls-3" x="1604.9" y="1226.91" width="18.06" height="25.46"/><rect class="cls-3" x="1637.91" y="1226.91" width="18.06" height="25.46"/><rect class="cls-3" x="1669.22" y="1226.91" width="18.06" height="25.46"/><rect class="cls-3" x="1701.13" y="1226.91" width="18.06" height="25.46"/><rect class="cls-3" x="1733.4" y="1226.91" width="18.06" height="25.46"/><rect class="cls-3" x="1767.17" y="1226.91" width="18.06" height="25.46"/><rect class="cls-3" x="1800.19" y="1226.91" width="18.06" height="25.46"/><rect class="cls-3" x="1831.5" y="1226.91" width="18.06" height="25.46"/><rect class="cls-3" x="1863.41" y="1226.91" width="18.06" height="25.46"/><rect class="cls-3" x="1245.59" y="1271.83" width="18.06" height="25.46"/><rect class="cls-3" x="1279.36" y="1271.83" width="18.06" height="25.46"/><rect class="cls-3" x="1312.38" y="1271.83" width="18.06" height="25.46"/><rect class="cls-3" x="1343.69" y="1271.83" width="18.06" height="25.46"/><rect class="cls-3" x="1375.59" y="1271.83" width="18.06" height="25.46"/><rect class="cls-3" x="1407.86" y="1271.83" width="18.06" height="25.46"/><rect class="cls-3" x="1441.64" y="1271.83" width="18.06" height="25.46"/><rect class="cls-3" x="1474.66" y="1271.83" width="18.06" height="25.46"/><rect class="cls-3" x="1505.96" y="1271.83" width="18.06" height="25.46"/><rect class="cls-3" x="1537.87" y="1271.83" width="18.06" height="25.46"/><rect class="cls-3" x="1571.12" y="1271.83" width="18.06" height="25.46"/><rect class="cls-3" x="1604.9" y="1271.83" width="18.06" height="25.46"/><rect class="cls-3" x="1637.91" y="1271.83" width="18.06" height="25.46"/><rect class="cls-3" x="1669.22" y="1271.83" width="18.06" height="25.46"/><rect class="cls-3" x="1701.13" y="1271.83" width="18.06" height="25.46"/><rect class="cls-3" x="1733.4" y="1271.83" width="18.06" height="25.46"/><rect class="cls-3" x="1767.17" y="1271.83" width="18.06" height="25.46"/><rect class="cls-3" x="1800.19" y="1271.83" width="18.06" height="25.46"/><rect class="cls-3" x="1831.5" y="1271.83" width="18.06" height="25.46"/><rect class="cls-3" x="1863.41" y="1271.83" width="18.06" height="25.46"/><rect class="cls-3" x="1245.59" y="1316.06" width="18.06" height="25.46"/><rect class="cls-3" x="1279.36" y="1316.06" width="18.06" height="25.46"/><rect class="cls-3" x="1312.38" y="1316.06" width="18.06" height="25.46"/><rect class="cls-3" x="1343.69" y="1316.06" width="18.06" height="25.46"/><rect class="cls-3" x="1375.59" y="1316.06" width="18.06" height="25.46"/><rect class="cls-3" x="1407.86" y="1316.06" width="18.06" height="25.46"/><rect class="cls-3" x="1441.64" y="1316.06" width="18.06" height="25.46"/><rect class="cls-3" x="1474.66" y="1316.06" width="18.06" height="25.46"/><rect class="cls-3" x="1505.96" y="1316.06" width="18.06" height="25.46"/><rect class="cls-3" x="1537.87" y="1316.06" width="18.06" height="25.46"/><rect class="cls-3" x="1571.12" y="1316.06" width="18.06" height="25.46"/><rect class="cls-3" x="1604.9" y="1316.06" width="18.06" height="25.46"/><rect class="cls-3" x="1637.91" y="1316.06" width="18.06" height="25.46"/><rect class="cls-3" x="1669.22" y="1316.06" width="18.06" height="25.46"/><rect class="cls-3" x="1701.13" y="1316.06" width="18.06" height="25.46"/><rect class="cls-3" x="1733.4" y="1316.06" width="18.06" height="25.46"/><rect class="cls-3" x="1767.17" y="1316.06" width="18.06" height="25.46"/><rect class="cls-3" x="1800.19" y="1316.06" width="18.06" height="25.46"/><rect class="cls-3" x="1831.5" y="1316.06" width="18.06" height="25.46"/><rect class="cls-3" x="1863.41" y="1316.06" width="18.06" height="25.46"/></g><rect class="cls-3" x="1118.95" y="1395.82" width="418.61" height="225.83"/><rect class="cls-3" x="801.52" y="1508.74" width="418.61" height="112.92"/><rect class="cls-3" x="1571.12" y="1431.01" width="418.61" height="190.64"/><rect class="cls-4" x="1146.91" y="1422.27" width="77.99" height="41.83"/><rect class="cls-4" x="1247.03" y="1422.27" width="77.99" height="41.83"/><rect class="cls-4" x="1345.24" y="1422.27" width="77.99" height="41.83"/><rect class="cls-4" x="1441.56" y="1422.27" width="77.99" height="41.83"/><rect class="cls-7" x="1533.21" y="1395.82" width="40.18" height="227.78"/><rect class="cls-7" x="2031.63" y="1351.77" width="40.18" height="271.83"/><rect class="cls-7" x="1989.73" y="1431.01" width="43.13" height="188.81"/><path class="cls-5" d="M1957.4,1442.24c-1.11,3-3.82,4.75-6,3.92s-3.13-3.93-2-6.92,9.29-12.62,9.29-12.62S1958.52,1439.24,1957.4,1442.24Z"/><path class="cls-5" d="M1935.46,1368.47c-1.12,3-3.83,4.74-6,3.92s-3.12-3.93-2-6.93,9.29-12.61,9.29-12.61S1936.57,1365.47,1935.46,1368.47Z"/><path class="cls-5" d="M1851.33,1479.71c-1.12,3-3.82,4.75-6,3.92s-3.12-3.93-2-6.92,9.28-12.62,9.28-12.62S1852.45,1476.71,1851.33,1479.71Z"/><path class="cls-8" d="M1920.79,1601.55s-7.75,16.73,7.35,18,24.07-4.89,27.74-12.23c0,0-18.77,7.75-15.91-1.64s10.2-24.48,10.2-24.48-15.9,28.58-23.83,27.2C1922.8,1607.74,1920.79,1601.55,1920.79,1601.55Z"/><rect class="cls-5" x="925.68" y="992.85" width="2.18" height="17.68"/><rect class="cls-5" x="1003.85" y="992.85" width="2.18" height="17.68"/><rect class="cls-4" x="1802.47" y="1351.11" width="230.4" height="268.71"/><rect class="cls-4" x="2013.16" y="1297.29" width="4.26" height="54.48"/><rect class="cls-4" x="1802.47" y="1426.52" width="287.43" height="193.3"/><rect class="cls-3" x="1802.47" y="1401.27" width="287.43" height="62.83"/><rect class="cls-3" x="1822.04" y="1482.71" width="14.76" height="20.81"/><rect class="cls-3" x="1849.65" y="1482.71" width="14.76" height="20.81"/><rect class="cls-3" x="1876.63" y="1482.71" width="14.76" height="20.81"/><rect class="cls-3" x="1902.22" y="1482.71" width="14.76" height="20.81"/><rect class="cls-3" x="1928.3" y="1482.71" width="14.76" height="20.81"/><rect class="cls-3" x="1954.68" y="1482.71" width="14.76" height="20.81"/><rect class="cls-3" x="1982.28" y="1482.71" width="14.76" height="20.81"/><rect class="cls-3" x="2009.27" y="1482.71" width="14.76" height="20.81"/><rect class="cls-3" x="2034.86" y="1482.71" width="14.76" height="20.81"/><rect class="cls-3" x="2060.93" y="1482.71" width="14.76" height="20.81"/><rect class="cls-3" x="1822.04" y="1519.43" width="14.76" height="20.81"/><rect class="cls-3" x="1849.65" y="1519.43" width="14.76" height="20.81"/><rect class="cls-3" x="1876.63" y="1519.43" width="14.76" height="20.81"/><rect class="cls-3" x="1902.22" y="1519.43" width="14.76" height="20.81"/><rect class="cls-3" x="1928.3" y="1519.43" width="14.76" height="20.81"/><rect class="cls-3" x="1954.68" y="1519.43" width="14.76" height="20.81"/><rect class="cls-3" x="1982.28" y="1519.43" width="14.76" height="20.81"/><rect class="cls-3" x="2009.27" y="1519.43" width="14.76" height="20.81"/><rect class="cls-3" x="2034.86" y="1519.43" width="14.76" height="20.81"/><rect class="cls-3" x="2060.93" y="1519.43" width="14.76" height="20.81"/><rect class="cls-3" x="1822.04" y="1555.58" width="14.76" height="20.81"/><rect class="cls-3" x="1849.65" y="1555.58" width="14.76" height="20.81"/><rect class="cls-3" x="1876.63" y="1555.58" width="14.76" height="20.81"/><rect class="cls-3" x="1902.22" y="1555.58" width="14.76" height="20.81"/><rect class="cls-3" x="1928.3" y="1555.58" width="14.76" height="20.81"/><rect class="cls-3" x="1954.68" y="1555.58" width="14.76" height="20.81"/><rect class="cls-3" x="1982.28" y="1555.58" width="14.76" height="20.81"/><rect class="cls-3" x="2009.27" y="1555.58" width="14.76" height="20.81"/><rect class="cls-3" x="2034.86" y="1555.58" width="14.76" height="20.81"/><rect class="cls-3" x="2060.93" y="1555.58" width="14.76" height="20.81"/><rect class="cls-7" x="1824.4" y="1418.92" width="12.4" height="21.46"/><rect class="cls-7" x="1947.55" y="1418.92" width="12.4" height="21.46"/><rect class="cls-7" x="2045.52" y="1418.92" width="12.4" height="21.46"/><rect class="cls-4" x="593.34" y="1426.52" width="287.43" height="193.3"/><rect class="cls-3" x="593.34" y="1401.27" width="287.43" height="62.83"/><rect class="cls-3" x="612.91" y="1482.71" width="14.76" height="20.81"/><rect class="cls-3" x="640.51" y="1482.71" width="14.76" height="20.81"/><rect class="cls-3" x="667.5" y="1482.71" width="14.76" height="20.81"/><rect class="cls-3" x="693.09" y="1482.71" width="14.76" height="20.81"/><rect class="cls-3" x="719.17" y="1482.71" width="14.76" height="20.81"/><rect class="cls-3" x="745.54" y="1482.71" width="14.76" height="20.81"/><rect class="cls-3" x="773.15" y="1482.71" width="14.76" height="20.81"/><rect class="cls-3" x="800.14" y="1482.71" width="14.76" height="20.81"/><rect class="cls-3" x="825.72" y="1482.71" width="14.76" height="20.81"/><rect class="cls-3" x="851.8" y="1482.71" width="14.76" height="20.81"/><rect class="cls-3" x="612.91" y="1519.43" width="14.76" height="20.81"/><rect class="cls-3" x="640.51" y="1519.43" width="14.76" height="20.81"/><rect class="cls-3" x="667.5" y="1519.43" width="14.76" height="20.81"/><rect class="cls-3" x="693.09" y="1519.43" width="14.76" height="20.81"/><rect class="cls-3" x="719.17" y="1519.43" width="14.76" height="20.81"/><rect class="cls-3" x="745.54" y="1519.43" width="14.76" height="20.81"/><rect class="cls-3" x="773.15" y="1519.43" width="14.76" height="20.81"/><rect class="cls-3" x="800.14" y="1519.43" width="14.76" height="20.81"/><rect class="cls-3" x="825.72" y="1519.43" width="14.76" height="20.81"/><rect class="cls-3" x="851.8" y="1519.43" width="14.76" height="20.81"/><rect class="cls-3" x="612.91" y="1555.58" width="14.76" height="20.81"/><rect class="cls-3" x="640.51" y="1555.58" width="14.76" height="20.81"/><rect class="cls-3" x="667.5" y="1555.58" width="14.76" height="20.81"/><rect class="cls-3" x="693.09" y="1555.58" width="14.76" height="20.81"/><rect class="cls-3" x="719.17" y="1555.58" width="14.76" height="20.81"/><rect class="cls-3" x="745.54" y="1555.58" width="14.76" height="20.81"/><rect class="cls-3" x="773.15" y="1555.58" width="14.76" height="20.81"/><rect class="cls-3" x="800.14" y="1555.58" width="14.76" height="20.81"/><rect class="cls-3" x="825.72" y="1555.58" width="14.76" height="20.81"/><rect class="cls-3" x="851.8" y="1555.58" width="14.76" height="20.81"/><rect class="cls-7" x="615.27" y="1418.92" width="12.4" height="21.46"/><rect class="cls-7" x="738.42" y="1418.92" width="12.4" height="21.46"/><rect class="cls-7" x="836.38" y="1418.92" width="12.4" height="21.46"/><polygon class="cls-4" points="575.28 1426.49 575.28 1619.78 322.68 1619.78 287.81 1582.04 287.81 1426.49 575.28 1426.49"/><rect class="cls-3" x="287.86" y="1401.27" width="287.43" height="62.83"/><rect class="cls-3" x="307.43" y="1482.71" width="14.76" height="20.81"/><rect class="cls-3" x="335.04" y="1482.71" width="14.76" height="20.81"/><rect class="cls-3" x="362.02" y="1482.71" width="14.76" height="20.81"/><rect class="cls-3" x="387.61" y="1482.71" width="14.76" height="20.81"/><rect class="cls-3" x="413.69" y="1482.71" width="14.76" height="20.81"/><rect class="cls-3" x="440.07" y="1482.71" width="14.76" height="20.81"/><rect class="cls-3" x="467.67" y="1482.71" width="14.76" height="20.81"/><rect class="cls-3" x="494.66" y="1482.71" width="14.76" height="20.81"/><rect class="cls-3" x="520.25" y="1482.71" width="14.76" height="20.81"/><rect class="cls-3" x="546.32" y="1482.71" width="14.76" height="20.81"/><rect class="cls-3" x="307.43" y="1519.43" width="14.76" height="20.81"/><rect class="cls-3" x="335.04" y="1519.43" width="14.76" height="20.81"/><rect class="cls-3" x="362.02" y="1519.43" width="14.76" height="20.81"/><rect class="cls-3" x="387.61" y="1519.43" width="14.76" height="20.81"/><rect class="cls-3" x="413.69" y="1519.43" width="14.76" height="20.81"/><rect class="cls-3" x="440.07" y="1519.43" width="14.76" height="20.81"/><rect class="cls-3" x="467.67" y="1519.43" width="14.76" height="20.81"/><rect class="cls-3" x="494.66" y="1519.43" width="14.76" height="20.81"/><rect class="cls-3" x="520.25" y="1519.43" width="14.76" height="20.81"/><rect class="cls-3" x="546.32" y="1519.43" width="14.76" height="20.81"/><rect class="cls-3" x="307.43" y="1555.58" width="14.76" height="20.81"/><rect class="cls-3" x="335.04" y="1555.58" width="14.76" height="20.81"/><rect class="cls-3" x="362.02" y="1555.58" width="14.76" height="20.81"/><rect class="cls-3" x="387.61" y="1555.58" width="14.76" height="20.81"/><rect class="cls-3" x="413.69" y="1555.58" width="14.76" height="20.81"/><rect class="cls-3" x="440.07" y="1555.58" width="14.76" height="20.81"/><rect class="cls-3" x="467.67" y="1555.58" width="14.76" height="20.81"/><rect class="cls-3" x="494.66" y="1555.58" width="14.76" height="20.81"/><rect class="cls-3" x="520.25" y="1555.58" width="14.76" height="20.81"/><rect class="cls-3" x="546.32" y="1555.58" width="14.76" height="20.81"/><rect class="cls-7" x="309.79" y="1418.92" width="12.4" height="21.46"/><rect class="cls-7" x="432.94" y="1418.92" width="12.4" height="21.46"/><rect class="cls-7" x="530.91" y="1418.92" width="12.4" height="21.46"/><path class="cls-4" d="M269.11,1426.49v120.92c-9.23-22.53-13.66-47-13.66-72.5,0-1.2,0-2.52.12-3.84,0-2.27.12-4.67.12-7l.36-6.11c.6-7.43,1.44-14.86,2.64-22.28,0-.25.12-.48.12-.72a37.16,37.16,0,0,0,.6-3.84c.24-1.56.59-3.11.95-4.68Z"/><path class="cls-3" d="M269.11,1401.21v62.91H255.69l.36-6.11c.6-7.43,1.44-14.86,2.64-22.28,0-.25.12-.48.12-.72a37.16,37.16,0,0,0,.6-3.84c.24-1.56.59-3.11.95-4.68,1.08-5.51,2.4-11,3.84-16.65.24-1.32.6-2.64,1-3.95.48-1.56.84-3.12,1.43-4.68Z"/><path class="cls-9" d="M2946.84,1378.77q-1.74,10.24-3.71,20.21c-.3,1.51-.59,3-.9,4.52l-.16.84c-.83,4-1.68,8.06-2.56,12q-2.37,10.74-4.92,21.05c-.31,1.27-.63,2.53-.94,3.78-4.55,18-9.48,35-14.55,50.77q-1.26,4-2.54,7.82-3.45,10.41-6.9,20.09-2.47,6.88-4.93,13.38c-8.74,23.27-17.17,42.6-24,57.16-6.35,13.6-11.82,25-14.57,30.69H1564.92V1349.82c99.19,7.63,230.94-76,327-24.64,108.77,58.17,392.31,203.77,573.18,98.51C2621.76,1332.49,2844.21,1336.48,2946.84,1378.77Z"/><rect class="cls-10" x="160.22" y="1617.93" width="2808.83" height="7.45" rx="3.18"/><path class="cls-11" d="M2729,1617.93H2636.6c-4.95-4.19,3.42-13.73,12.17-14.37,3.8-.29,8.61.51,14.1,1.67,1.27-16.88,8.53-92.77,35.88-89.72,30.76,3.41,0,33.42-8.69,51.18-6.44,13.16-13.24,32-16.34,40.94,2.49.54,5.08,1.07,7.72,1.55,4.08-12.51,19.24-54.62,38.53-52.16,22.65,2.87,13.55,19.75-2.5,29.77-11.78,7.37-26.24,17.84-33.11,22.9a98.38,98.38,0,0,0,18.06,1.45C2718.24,1610.76,2726,1615.43,2729,1617.93Z"/><path class="cls-11" d="M438.07,1614c-4.34-6.81-17.39-24.49-34.78-22.15-18.94,2.55,20.92,15,33.13,22.21a20.41,20.41,0,0,1-6.75-.79c-8.16-2.91-22.14,2.67-26.6,4.62h77.68a12.34,12.34,0,0,0-5.56-7.1c-1.27-.78-3.84-.89-7.15-.64,4.62-5.44,7.83-22.84-5-18.36-9.39,3.27-9.37,13.9-8.45,20.19-2,.31-4,.63-6,.91-3.87-19.71-17.55-77.47-45.28-79-28.1-1.56,23.84,59.92,41.14,79.57C442.18,1613.75,440.05,1614,438.07,1614Z"/><path class="cls-12" d="M790.28,1028.78a151.66,151.66,0,0,0-151.71,151.7c0,83.77,151.71,270,151.71,270s68.9-84.6,113.71-165.36c21.81-39.07,38-77.3,38-104.62A151.73,151.73,0,0,0,790.28,1028.78Zm0,221a71.38,71.38,0,1,1,15.45-1.79A65.6,65.6,0,0,1,790.28,1249.74Z"/><path class="cls-12" d="M2713.27,1251.09a67.32,67.32,0,0,0-67.33,67.33c0,37.18,67.33,119.85,67.33,119.85s67.33-82.67,67.33-119.85A67.33,67.33,0,0,0,2713.27,1251.09Zm0,98.11a31.47,31.47,0,1,1,31.47-31.47A31.47,31.47,0,0,1,2713.27,1349.2Z"/><path class="cls-13" d="M482.43,1327.57a36.87,36.87,0,0,0-36.87,36.87c0,20.37,36.87,65.64,36.87,65.64s36.87-45.27,36.87-65.64A36.87,36.87,0,0,0,482.43,1327.57Zm0,53.73a17.24,17.24,0,1,1,17.24-17.23A17.22,17.22,0,0,1,482.43,1381.3Z"/><path class="cls-11" d="M857.43,1617.93s26.43-78.87,102.14-94,131.76,44.1,199.21,21,173.78-145.4,300.33-56,118.25,114.84,198.07,94,98.07,35.13,98.07,35.13Z"/><path class="cls-11" d="M935.16,1543.73s-55.22-57.9-83.43-42.38S935.16,1543.73,935.16,1543.73Z"/><path class="cls-11" d="M921.07,1558.37s-50.9-16.59-63.64-8.3S921.07,1558.37,921.07,1558.37Z"/><path class="cls-11" d="M1083,1553.06s35-78.48,47.12-64.2S1083,1553.06,1083,1553.06Z"/><path class="cls-11" d="M1074.44,1547.75s14.28-57.46-7.13-53.89S1074.44,1547.75,1074.44,1547.75Z"/><path class="cls-14" d="M2694.88,1220.3c-.08-.23-1.75-5.65-5.36-15.5a2.67,2.67,0,0,0-5,1.84c3.55,9.71,5.24,15.18,5.26,15.23a2.67,2.67,0,0,0,2.56,1.9,3,3,0,0,0,.78-.12A2.7,2.7,0,0,0,2694.88,1220.3Zm-11.13-30.65c-1.92-4.87-4-9.92-6.09-15a2.68,2.68,0,1,0-4.94,2.07c2.11,5,4.15,10,6.05,14.88a2.7,2.7,0,0,0,2.5,1.7,2.58,2.58,0,0,0,1-.19A2.67,2.67,0,0,0,2683.75,1189.65ZM589.22,1178.81c-4.79-2.35-9.71-4.65-14.63-6.85a2.67,2.67,0,1,0-2.17,4.89c4.85,2.17,9.71,4.44,14.43,6.77a2.76,2.76,0,0,0,1.18.28,2.68,2.68,0,0,0,1.19-5.09Zm-29.49-13.14c-5-2-10-3.92-15.09-5.75a2.68,2.68,0,1,0-1.81,5c5,1.8,10,3.7,14.91,5.67a2.65,2.65,0,0,0,1,.2,2.68,2.68,0,0,0,1-5.17Zm2111.54-5.85c-2.15-4.84-4.38-9.79-6.66-14.72a2.69,2.69,0,0,0-3.56-1.29,2.66,2.66,0,0,0-1.3,3.55c2.26,4.89,4.49,9.81,6.62,14.62a2.66,2.66,0,0,0,2.44,1.6,2.72,2.72,0,0,0,1.08-.23A2.68,2.68,0,0,0,2671.27,1159.82Zm-2141.9-5.1c-5-1.64-10.25-3.21-15.43-4.69a2.67,2.67,0,0,0-1.48,5.14c5.13,1.47,10.27,3,15.27,4.65a2.93,2.93,0,0,0,.83.13,2.71,2.71,0,0,0,2.55-1.87A2.68,2.68,0,0,0,529.37,1154.72Zm-31-8.88c-5.16-1.3-10.45-2.55-15.7-3.7a2.67,2.67,0,1,0-1.14,5.22c5.19,1.15,10.42,2.38,15.53,3.67a3,3,0,0,0,.66.08,2.68,2.68,0,0,0,.65-5.27Zm-31.49-6.94c-5.23-1-10.57-1.92-15.88-2.78a2.68,2.68,0,0,0-.85,5.29c5.26.85,10.56,1.77,15.73,2.75a2.84,2.84,0,0,0,.51.06,2.68,2.68,0,0,0,.49-5.32ZM435,1133.78c-5.24-.71-10.62-1.36-16-1.94a2.68,2.68,0,1,0-.58,5.32c5.32.58,10.66,1.22,15.87,1.92a2,2,0,0,0,.35,0,2.67,2.67,0,0,0,.35-5.32Zm2222.66-3.26c-2.32-4.8-4.73-9.66-7.16-14.46a2.68,2.68,0,0,0-4.78,2.41c2.41,4.78,4.81,9.62,7.12,14.38a2.66,2.66,0,0,0,2.41,1.51,2.76,2.76,0,0,0,1.17-.26A2.7,2.7,0,0,0,2657.7,1130.52Zm-14.55-28.79c-2.49-4.73-5.06-9.5-7.63-14.21a2.68,2.68,0,0,0-4.7,2.57c2.56,4.68,5.12,9.43,7.58,14.13a2.69,2.69,0,0,0,2.38,1.43,2.73,2.73,0,0,0,1.24-.3A2.7,2.7,0,0,0,2643.15,1101.73Zm-15.48-28.29c-2.64-4.65-5.35-9.35-8.07-14a2.68,2.68,0,0,0-4.62,2.72c2.71,4.6,5.41,9.26,8,13.89a2.67,2.67,0,0,0,2.33,1.35,2.73,2.73,0,0,0,1.32-.34A2.68,2.68,0,0,0,2627.67,1073.44Zm-1650-27.14a2.67,2.67,0,0,0-3.73.64c-3.08,4.36-6.19,8.82-9.21,13.22a2.67,2.67,0,0,0,2.21,4.18,2.65,2.65,0,0,0,2.2-1.15c3-4.39,6.1-8.81,9.17-13.15A2.68,2.68,0,0,0,977.69,1046.3Zm1633.61-.64c-2.8-4.6-5.66-9.2-8.51-13.69a2.67,2.67,0,1,0-4.52,2.86c2.83,4.47,5.67,9.05,8.47,13.61a2.64,2.64,0,0,0,3.67.89A2.67,2.67,0,0,0,2611.3,1045.66ZM996.68,1020.38a2.69,2.69,0,0,0-3.75.53c-3.22,4.3-6.44,8.65-9.58,12.95a2.68,2.68,0,0,0,4.33,3.16c3.11-4.29,6.33-8.62,9.53-12.88A2.69,2.69,0,0,0,996.68,1020.38Zm1597.38-2c-2.94-4.49-6-9-8.95-13.41a2.68,2.68,0,0,0-4.43,3c3,4.39,6,8.88,8.89,13.34a2.7,2.7,0,0,0,2.25,1.21,2.74,2.74,0,0,0,1.47-.44A2.7,2.7,0,0,0,2594.06,1018.42ZM1016.42,995a2.67,2.67,0,0,0-3.76.42c-3.33,4.16-6.68,8.43-10,12.66a2.68,2.68,0,0,0,4.23,3.28c3.27-4.22,6.6-8.46,9.91-12.6A2.68,2.68,0,0,0,1016.42,995Zm1559.52-3.28c-3.07-4.36-6.23-8.78-9.37-13.09a2.68,2.68,0,1,0-4.33,3.15c3.12,4.29,6.26,8.67,9.32,13a2.68,2.68,0,0,0,2.2,1.13,2.61,2.61,0,0,0,1.53-.48A2.68,2.68,0,0,0,2575.94,991.75Zm-1539-21.48a2.7,2.7,0,0,0-3.78.31c-3.44,4.06-6.92,8.22-10.32,12.36a2.67,2.67,0,1,0,4.13,3.4c3.39-4.12,6.84-8.26,10.27-12.3A2.66,2.66,0,0,0,1036.9,970.27ZM2557,965.7c-3.23-4.27-6.52-8.58-9.81-12.78a2.67,2.67,0,1,0-4.22,3.28c3.27,4.19,6.54,8.47,9.76,12.72a2.66,2.66,0,0,0,2.13,1.08,2.69,2.69,0,0,0,2.14-4.3ZM1058.13,946.15a2.68,2.68,0,0,0-3.78.19c-3.59,4-7.19,8-10.71,12a2.68,2.68,0,0,0,.25,3.78,2.68,2.68,0,0,0,3.77-.25c3.52-4,7.09-8,10.66-12A2.69,2.69,0,0,0,1058.13,946.15Zm1479-5.86c-3.36-4.17-6.8-8.36-10.23-12.45a2.67,2.67,0,1,0-4.1,3.42c3.39,4.08,6.82,8.25,10.16,12.39a2.69,2.69,0,0,0,2.09,1,2.62,2.62,0,0,0,1.68-.6A2.67,2.67,0,0,0,2537.16,940.29ZM1080.08,922.71a2.66,2.66,0,0,0-3.78.07c-3.73,3.87-7.46,7.81-11.08,11.7a2.68,2.68,0,0,0,2,4.5,2.64,2.64,0,0,0,2-.85c3.61-3.87,7.32-7.79,11-11.64A2.66,2.66,0,0,0,1080.08,922.71Zm1436.42-7.15c-3.51-4.06-7.09-8.13-10.64-12.1a2.68,2.68,0,0,0-4,3.57c3.55,4,7.1,8,10.59,12a2.68,2.68,0,1,0,4.05-3.5ZM1102.77,900a2.66,2.66,0,0,0-3.78,0c-3.8,3.71-7.66,7.53-11.44,11.34a2.68,2.68,0,0,0,3.8,3.77c3.76-3.79,7.59-7.59,11.37-11.29A2.66,2.66,0,0,0,1102.77,900ZM2495,891.55c-3.66-3.94-7.38-7.88-11.06-11.72a2.68,2.68,0,0,0-3.87,3.71c3.67,3.81,7.36,7.73,11,11.65a2.68,2.68,0,0,0,3.93-3.64ZM1126.19,878a2.69,2.69,0,0,0-3.79-.17c-3.93,3.6-7.91,7.28-11.79,11a2.67,2.67,0,1,0,3.67,3.89c3.87-3.65,7.82-7.32,11.73-10.9A2.67,2.67,0,0,0,1126.19,878Zm1346.49-9.66c-3.78-3.8-7.63-7.6-11.46-11.32a2.68,2.68,0,0,0-3.73,3.85c3.81,3.69,7.64,7.47,11.4,11.25a2.65,2.65,0,0,0,1.9.78,2.61,2.61,0,0,0,1.88-.78A2.67,2.67,0,0,0,2472.68,868.31ZM1150.3,856.75a2.67,2.67,0,0,0-3.78-.29c-4,3.46-8.13,7-12.15,10.57a2.67,2.67,0,1,0,3.55,4c4-3.53,8-7.07,12.08-10.51A2.68,2.68,0,0,0,1150.3,856.75Zm24.8-20.41a2.67,2.67,0,0,0-3.76-.42c-4.17,3.33-8.37,6.76-12.49,10.16a2.67,2.67,0,1,0,3.41,4.12c4.09-3.38,8.28-6.79,12.42-10.09A2.69,2.69,0,0,0,1175.1,836.34Zm1274.44,9.55c-3.9-3.66-7.9-7.33-11.86-10.9a2.68,2.68,0,0,0-3.59,4c3.94,3.55,7.92,7.19,11.8,10.83a2.67,2.67,0,0,0,1.83.71,2.62,2.62,0,0,0,2-.84A2.66,2.66,0,0,0,2449.54,845.89Zm-1249-29.12a2.69,2.69,0,0,0-3.75-.53c-4.26,3.17-8.58,6.44-12.83,9.73a2.68,2.68,0,1,0,3.28,4.23c4.21-3.25,8.51-6.51,12.75-9.68A2.68,2.68,0,0,0,1200.58,816.77Zm1225,7.54c-4-3.5-8.16-7-12.26-10.45a2.68,2.68,0,1,0-3.44,4.11c4.08,3.42,8.18,6.91,12.19,10.39a2.65,2.65,0,0,0,1.76.65,2.68,2.68,0,0,0,1.75-4.7ZM1226.7,798.09a2.68,2.68,0,0,0-3.72-.67c-4.39,3-8.82,6.17-13.16,9.3a2.68,2.68,0,0,0,3.12,4.35c4.33-3.12,8.73-6.23,13.09-9.26A2.67,2.67,0,0,0,1226.7,798.09Zm1174.19,5.56c-4.19-3.38-8.44-6.73-12.65-10a2.68,2.68,0,1,0-3.28,4.23c4.18,3.23,8.41,6.57,12.58,9.92a2.66,2.66,0,0,0,3.75-.41A2.67,2.67,0,0,0,2400.89,803.65ZM1253.44,780.31a2.68,2.68,0,0,0-3.7-.8c-4.49,2.9-9,5.87-13.46,8.84a2.68,2.68,0,0,0,1.49,4.91,2.61,2.61,0,0,0,1.48-.46c4.42-3,8.92-5.91,13.39-8.78A2.69,2.69,0,0,0,1253.44,780.31Zm1122,3.61c-4.3-3.2-8.68-6.39-13-9.49a2.68,2.68,0,1,0-3.11,4.36c4.3,3.08,8.66,6.24,12.93,9.44a2.7,2.7,0,0,0,1.6.52,2.68,2.68,0,0,0,1.6-4.83ZM1280.78,763.46a2.68,2.68,0,0,0-3.67-.93c-4.58,2.74-9.21,5.55-13.75,8.37a2.68,2.68,0,0,0,1.41,5,2.59,2.59,0,0,0,1.4-.41c4.53-2.8,9.13-5.6,13.69-8.32A2.68,2.68,0,0,0,1280.78,763.46Zm1068.42,1.73c-4.42-3-8.92-6.05-13.38-9a2.68,2.68,0,1,0-2.94,4.47c4.42,2.92,8.9,5.92,13.29,8.92a2.56,2.56,0,0,0,1.51.48,2.65,2.65,0,0,0,2.2-1.16A2.69,2.69,0,0,0,2349.2,765.19ZM1308.68,747.56a2.67,2.67,0,0,0-3.64-1c-4.69,2.58-9.41,5.23-14,7.89a2.68,2.68,0,0,0,1.34,5,2.78,2.78,0,0,0,1.33-.35c4.61-2.65,9.3-5.29,13.95-7.85A2.68,2.68,0,0,0,1308.68,747.56Zm1013.6-.07c-4.5-2.84-9.11-5.68-13.72-8.46a2.68,2.68,0,0,0-2.76,4.59c4.57,2.76,9.15,5.59,13.62,8.4a2.68,2.68,0,0,0,2.86-4.53Zm-985.17-14.87a2.7,2.7,0,0,0-3.61-1.18c-4.75,2.42-9.56,4.92-14.29,7.41a2.68,2.68,0,0,0,1.25,5,2.58,2.58,0,0,0,1.26-.31c4.7-2.48,9.48-5,14.22-7.36A2.68,2.68,0,0,0,1337.11,732.62Zm957.57-1.77c-4.63-2.69-9.35-5.34-14-7.91a2.68,2.68,0,1,0-2.58,4.69c4.63,2.55,9.32,5.19,13.94,7.86a2.78,2.78,0,0,0,1.33.35,2.67,2.67,0,0,0,1.33-5ZM1366,718.67a2.7,2.7,0,0,0-3.57-1.3c-4.83,2.25-9.72,4.57-14.54,6.92a2.68,2.68,0,0,0,1.18,5.08,2.69,2.69,0,0,0,1.16-.27c4.79-2.33,9.66-4.64,14.46-6.87A2.69,2.69,0,0,0,1366,718.67Zm900.43-3.37c-4.75-2.49-9.56-5-14.33-7.35a2.67,2.67,0,0,0-2.4,4.78c4.73,2.37,9.53,4.83,14.24,7.31a2.66,2.66,0,0,0,3.61-1.13A2.65,2.65,0,0,0,2266.47,715.3Zm-871.06-9.59a2.67,2.67,0,0,0-3.51-1.41c-4.91,2.07-9.88,4.24-14.77,6.41a2.67,2.67,0,0,0,1.09,5.12,2.72,2.72,0,0,0,1.08-.23c4.86-2.16,9.81-4.31,14.7-6.38A2.68,2.68,0,0,0,1395.41,705.71Zm842.25-4.84c-4.82-2.29-9.73-4.58-14.6-6.78a2.67,2.67,0,1,0-2.21,4.87c4.84,2.2,9.72,4.46,14.51,6.75a2.83,2.83,0,0,0,1.16.26,2.68,2.68,0,0,0,1.14-5.1Zm-812.45-7.12a2.68,2.68,0,0,0-3.46-1.54c-5,1.92-10,3.92-15,5.92a2.68,2.68,0,0,0,1,5.16,2.7,2.7,0,0,0,1-.2c4.93-2,9.94-4,14.9-5.88A2.68,2.68,0,0,0,1425.21,693.75Zm783.11-6.16c-4.91-2.11-9.91-4.2-14.86-6.21a2.68,2.68,0,1,0-2,5c4.91,2,9.88,4.08,14.76,6.17a2.62,2.62,0,0,0,1.05.21,2.67,2.67,0,0,0,1.06-5.13Zm-752.92-4.81a2.69,2.69,0,0,0-3.42-1.65c-5,1.76-10.14,3.58-15.16,5.41a2.68,2.68,0,1,0,1.84,5c5-1.83,10.06-3.64,15.09-5.38A2.69,2.69,0,0,0,1455.4,682.78Zm30.51-10a2.68,2.68,0,0,0-3.35-1.75c-5.13,1.59-10.29,3.25-15.33,4.91a2.68,2.68,0,0,0,.83,5.23,2.8,2.8,0,0,0,.85-.14c5-1.65,10.15-3.3,15.25-4.88A2.7,2.7,0,0,0,1485.91,672.8Zm692.57,2.66c-5-1.91-10-3.8-15.09-5.63a2.68,2.68,0,0,0-1.83,5c5,1.82,10.07,3.7,15,5.6a2.7,2.7,0,0,0,1,.17,2.67,2.67,0,0,0,1-5.17Zm-661.74-11.64a2.67,2.67,0,0,0-3.3-1.86c-5.16,1.43-10.36,2.92-15.47,4.42a2.68,2.68,0,0,0,.75,5.25,2.91,2.91,0,0,0,.76-.11c5.08-1.5,10.26-3,15.4-4.4A2.68,2.68,0,0,0,1516.74,663.82Zm631.46.67c-5.06-1.72-10.21-3.41-15.3-5a2.68,2.68,0,1,0-1.63,5.1c5.06,1.61,10.18,3.31,15.2,5a2.55,2.55,0,0,0,.86.15,2.68,2.68,0,0,0,.87-5.22Zm-600.36-8.67a2.69,2.69,0,0,0-3.24-2c-5.2,1.26-10.45,2.59-15.61,3.93a2.68,2.68,0,0,0,.68,5.27,2.21,2.21,0,0,0,.67-.09c5.13-1.34,10.36-2.64,15.53-3.91A2.69,2.69,0,0,0,1547.84,655.82Zm569.67-1.12c-5.11-1.54-10.31-3-15.47-4.47a2.68,2.68,0,0,0-1.44,5.16c5.13,1.43,10.3,2.91,15.38,4.44a2.87,2.87,0,0,0,.77.11,2.68,2.68,0,0,0,.76-5.24Zm-538.35-5.94a2.68,2.68,0,0,0-3.17-2.06l-7.37,1.59c-2.79.61-5.58,1.23-8.35,1.87a2.68,2.68,0,0,0,.59,5.29,3.16,3.16,0,0,0,.6-.07c2.76-.63,5.52-1.25,8.31-1.85l7.33-1.6A2.66,2.66,0,0,0,1579.16,648.76Zm507.33-2.69c-5.15-1.34-10.41-2.65-15.63-3.89a2.67,2.67,0,1,0-1.25,5.2c5.18,1.24,10.41,2.54,15.54,3.87a3.07,3.07,0,0,0,.67.08,2.67,2.67,0,0,0,.67-5.26Zm-475.83-3.65a2.69,2.69,0,0,0-3.13-2.12c-5.22,1-10.53,2.05-15.79,3.12a2.68,2.68,0,0,0,.53,5.3,3.17,3.17,0,0,0,.53-.05c5.25-1.06,10.54-2.11,15.73-3.11A2.68,2.68,0,0,0,1610.66,642.42Zm444.51-3.84c-5.22-1.15-10.52-2.26-15.77-3.31a2.67,2.67,0,0,0-3.15,2.09,2.69,2.69,0,0,0,2.1,3.16c5.21,1,10.49,2.15,15.67,3.29a2.83,2.83,0,0,0,.57.06,2.68,2.68,0,0,0,.58-5.29Zm-412.89-1.79a2.67,2.67,0,0,0-3.08-2.19c-5.26.89-10.59,1.82-15.86,2.76a2.68,2.68,0,0,0,.47,5.31,2.59,2.59,0,0,0,.48,0c5.25-.94,10.56-1.88,15.8-2.75A2.68,2.68,0,0,0,1642.28,636.79Zm381.32-4.56c-5.26-1-10.59-1.88-15.87-2.75a2.68,2.68,0,0,0-.87,5.29c5.25.86,10.55,1.78,15.77,2.73a2.7,2.7,0,0,0,.49,0,2.68,2.68,0,0,0,.48-5.31ZM1674,631.87a2.66,2.66,0,0,0-3-2.26c-5.28.76-10.63,1.57-15.91,2.4a2.68,2.68,0,0,0,.41,5.32,2.22,2.22,0,0,0,.43,0c5.25-.82,10.58-1.62,15.84-2.38A2.68,2.68,0,0,0,1674,631.87Zm31.86-4.16a2.68,2.68,0,0,0-3-2.34c-5.27.64-10.64,1.31-16,2a2.68,2.68,0,0,0,.34,5.33l.35,0c5.31-.71,10.67-1.38,15.91-2A2.68,2.68,0,0,0,1705.88,627.71Zm285.95-.71c-5.27-.77-10.64-1.5-16-2.19a2.68,2.68,0,1,0-.68,5.31c5.29.68,10.62,1.41,15.86,2.19a2.34,2.34,0,0,0,.38,0,2.68,2.68,0,0,0,.4-5.34Zm-256.92-5.07c-5.31.5-10.7,1.05-16,1.62a2.68,2.68,0,0,0,.29,5.34l.29,0c5.3-.57,10.66-1.12,15.94-1.62a2.67,2.67,0,1,0-.5-5.32Zm225,.94c-5.33-.6-10.71-1.16-16-1.66a2.67,2.67,0,1,0-.51,5.32c5.28.52,10.64,1.07,15.93,1.66l.3,0a2.68,2.68,0,0,0,.3-5.34ZM1767,619.31c-5.31.36-10.71.76-16,1.19a2.68,2.68,0,0,0,.21,5.35h.23c5.32-.44,10.69-.85,16-1.21a2.67,2.67,0,1,0-.36-5.33Zm160.86.5c-5.3-.43-10.7-.81-16.07-1.15a2.68,2.68,0,0,0-.34,5.35c5.33.33,10.71.71,16,1.13h.21a2.67,2.67,0,0,0,.22-5.34Zm-128.72-2.27c-5.3.21-10.71.48-16.07.77a2.68,2.68,0,0,0,.14,5.35h.15c5.35-.29,10.73-.54,16-.76a2.68,2.68,0,0,0-.23-5.35Zm96.58.23c-5.32-.25-10.73-.47-16.09-.64a2.68,2.68,0,1,0-.17,5.36c5.33.17,10.72.38,16,.63h.13a2.68,2.68,0,0,0,.13-5.35Zm-64.35-1.1h0c-5.31.07-10.73.17-16.09.32a2.68,2.68,0,0,0,.06,5.36h.08c5.34-.15,10.74-.26,16-.32a2.68,2.68,0,0,0,0-5.36Zm32.16.07c-5.33-.09-10.75-.14-16.09-.15h0a2.68,2.68,0,1,0,0,5.35c5.32,0,10.71.06,16,.15h0a2.68,2.68,0,0,0,0-5.35Z"/><polygon class="cls-13" points="2050.39 1320.52 2044.31 1315.56 2125.78 1209.09 2155.18 1207.86 2050.39 1320.52"/><polygon class="cls-13" points="1943.93 1320.52 1938.9 1315.56 2006.31 1209.09 2030.64 1207.86 1943.93 1320.52"/><ellipse class="cls-13" cx="1482.17" cy="1043.01" rx="35.73" ry="36.59"/><path class="cls-13" d="M1899.68,1536.26H1536.39a7.23,7.23,0,0,1-7.18-7.23v-34.34a7.22,7.22,0,0,1,7.18-7.23h320.92a7.22,7.22,0,0,1,7.17,7.23Z"/><circle class="cls-15" cx="2011.45" cy="1509.36" r="108.57"/><circle class="cls-16" cx="2011.45" cy="1509.37" r="55.34"/><path class="cls-13" d="M1453.39,1356.11a160.74,160.74,0,0,0-207.51,129.23,21,21,0,0,0,20.74,24h.71a13.34,13.34,0,0,0,13.25-12.13c6.13-63.17,59.51-112.71,124.25-112.71a124.85,124.85,0,0,1,124.84,124.84h35.91C1565.58,1437.64,1518.37,1376.74,1453.39,1356.11Z"/><path class="cls-13" d="M1620,1487.46l-54.41,21.9c-37.67-73.25-76.14-109.2-109-126.93-59.19-31.91-100.39-4.88-86.52-30l101.54-214.25a93.28,93.28,0,0,1,84.35-38.42,30.33,30.33,0,0,1,25.86,39.79c-13.29,39.76-18.4,79.72-18.4,117.66C1563.37,1383.48,1620,1487.46,1620,1487.46Z"/><path class="cls-13" d="M1564.52,1124.53l-41-15.66c-5.58,0-16.21,5-16.21-.54l6.07-100.07a10.17,10.17,0,0,1,10.14-10.14H1550c5.58,0,27.93,10.7,26.35,30.72l7,100.87C1583.34,1135.29,1570.1,1124.53,1564.52,1124.53Z"/><rect class="cls-13" x="1975.2" y="1174.23" width="301.63" height="38.58" rx="14.36"/><circle class="cls-15" cx="1404.84" cy="1509.36" r="108.57"/><path class="cls-17" d="M1460.18,1509.36a55.06,55.06,0,0,1-6.38,25.81c-.27.5-.54,1-.83,1.48a55.34,55.34,0,1,1-69.4-78.37c.2-.1.42-.18.63-.27a55.37,55.37,0,0,1,76,51.35Z"/><path class="cls-13" d="M1802.49,1290.68s42.33,94.29-52.23,196.78h218.25l-29.61-224.38Z"/><path class="cls-13" d="M2230.31,1521.9a14.41,14.41,0,0,1-14.36,14.36H1867.66a14.41,14.41,0,0,1-14.37-14.36l4.62-227.8,117.29-7.19C2131.43,1286.91,2230.31,1365.66,2230.31,1521.9Z"/><path class="cls-12" d="M1517.9,1040.93a56.13,56.13,0,0,1-56.19,56.18V984.76A56.19,56.19,0,0,1,1517.9,1040.93Z"/><path class="cls-15" d="M1606.57,1048.52c-.21,0-2.55-.46-2.77-.5l-61.8-17.15c-2.46-.48-4.15-3.52-3.79-6.79s2.63-5.54,5.09-5l62,12.09c2.46.48,4.41,4.21,5,7.42C1611.21,1043.93,1608.76,1048.52,1606.57,1048.52Z"/><path class="cls-12" d="M1457.22,1386.77q.84,5.19,1.62,10l-.48-.23a124.19,124.19,0,0,0-53.53-12.06c-64.74,0-118.12,49.54-124.25,112.71a13.34,13.34,0,0,1-13.25,12.13h-.71a21,21,0,0,1-20.74-24,161.16,161.16,0,0,1,123.49-132.77l.65-.16,101.54-214.25a93.09,93.09,0,0,1,35.78-29.83c-17.31,29.13-65.06,122.26-53.95,247.78q1.15,12.93,3.15,26.32C1456.77,1383.87,1457,1385.32,1457.22,1386.77Z"/><path class="cls-12" d="M2035.74,1246.17V1280a10.71,10.71,0,0,1-10.68,10.67H1802.49a10.71,10.71,0,0,1-10.67-10.67v-33.84a10.71,10.71,0,0,1,10.67-10.68h222.57A10.7,10.7,0,0,1,2035.74,1246.17Z"/><path class="cls-18" d="M2202.72,1536.26H1867.66s-20.45-124.06,55-166c18.16-10.09,41-13.56,65.84-11.13C2066.8,1366.85,2165.46,1433.23,2202.72,1536.26Z"/><path class="cls-19" d="M1517,1051.26a56.21,56.21,0,0,1-55.24,45.85v-31.35C1478.22,1066.42,1502,1064.62,1517,1051.26Z"/><path class="cls-19" d="M1965.28,1290.68H1802.49a10.71,10.71,0,0,1-10.67-10.67v-33.84a10.71,10.71,0,0,1,10.67-10.68H1914C1923.71,1249.17,1941.93,1272.37,1965.28,1290.68Z"/><path class="cls-20" d="M2202.72,1536.26H2063.56c-84-42.63-78.86-145.46-75.1-177.08C2066.8,1366.85,2165.46,1433.23,2202.72,1536.26Z"/><path class="cls-16" d="M1453,1536.65a55.34,55.34,0,1,1-69.4-78.37C1388.38,1482.23,1403.87,1526.61,1453,1536.65Z"/><path class="cls-19" d="M1457.22,1386.77q.84,5.19,1.62,10l-.48-.23c-20-18.54-62.41-35-89-44l.65-.16,101.54-214.25a93.09,93.09,0,0,1,35.78-29.83c-17.31,29.13-65.06,122.26-53.95,247.78q1.15,12.93,3.15,26.32C1456.77,1383.87,1457,1385.32,1457.22,1386.77Z"/><rect class="cls-21" x="1997.61" y="1031.2" width="173.46" height="143.03" transform="translate(4168.67 2205.43) rotate(180)"/><rect class="cls-22" x="2084.34" y="1031.2" width="173.46" height="143.03"/><polygon class="cls-22" points="1997.71 1137.96 2025.19 1137.96 2022.77 1130.22 2025.19 1124.69 1997.71 1124.69 1997.71 1137.96"/><polygon class="cls-23" points="2257.79 1126.03 2257.79 1174.23 2084.34 1174.23 2084.34 1031.2 2115.06 1031.2 2257.79 1126.03"/><polygon class="cls-24" points="2257.8 1063.28 2230.31 1063.28 2232.73 1055.55 2230.31 1050.02 2257.8 1050.02 2257.8 1063.28"/><polygon class="cls-22" points="2257.8 1151.22 2230.31 1151.22 2232.73 1143.48 2230.31 1137.96 2257.8 1137.96 2257.8 1151.22"/><path class="cls-25" d="M1821.84,901.59c30,12.17,84.81-13.86,84.81-13.86s-18.2-16.11-21.66-46.62c-.18-1.54-.31-3.1-.41-4.71l-15.5-5.51L1842.52,849a205.81,205.81,0,0,0,.3,24.46c.16,2.72.37,5.64.65,8.75C1829.69,888.37,1821.84,901.59,1821.84,901.59Z"/><path class="cls-26" d="M1842.52,849a205.81,205.81,0,0,0,.3,24.46c24.17-4.39,37.47-23.91,42.17-32.32-.18-1.54-.31-3.1-.41-4.71l-15.5-5.51Z"/><path class="cls-25" d="M1837.62,861.93s51.64-1.68,50.1-33.83,4.09-54-29-54.3-38.85,12.29-40.94,23.15S1824.14,861.54,1837.62,861.93Z"/><path class="cls-15" d="M1885,841.11s2-10.69-3.8-17.74c0,0,3.75-10.49-.28-12.84s-6.14,6.61-7.9,4.92-9.59-9.61-12-20.07-38.22-3-42.45-1.7,23.76-51,54-38.6,32.5,27.89,29,40.46S1898.39,838.53,1885,841.11Z"/><path class="cls-27" d="M1934.39,1147.94s-3.58,63.09-17.94,81.06-289.68,11-289.68,11-1.19-40.46,9.58-50.86,61.05-40.28,221.56-57.21Z"/><path class="cls-12" d="M1938.06,1015.89c-4.49,54.19,1.43,136.61-3.67,150.89-4.39,12.32-54.47,5-74.44.89-7.4-1.53-16.37-3.7-25.62-6.27-25.81-7.17-53.94-17.42-56.95-25a5.26,5.26,0,0,1-.28-.88,6.22,6.22,0,0,1,.05-3.18c.74-2.87,3.06-5.91,4.41-11.19a33.46,33.46,0,0,0,.93-6.49c.47-9.82.44-21.22.78-33.5,0-1.13.07-2.27.11-3.4a46.32,46.32,0,0,1,.22-4.72l0-.56c0-.29,0-.58,0-.86.43-15.15,1.32-31,2.33-46.84.33-4.92.67-9.82,1.06-14.65.12-1.72.26-3.41.39-5.1.26-3.16.53-6.3.82-9.39,2.25-24.27,5.29-45.87,9.3-59.51,6.56-22.25,21-36.76,34.19-47.39l9.53-7.34c10.63,2.08,23.2.7,34.57-4.13,12.29-5.25,16.54-9,18.69-7.59C1922.93,889.33,1943.37,949.64,1938.06,1015.89Z"/><path class="cls-28" d="M1725.83,1447.55s-2.44,39.27-10,39.84c-1,.07-38.54.07-38.54.07l-47.9-.28s.31-11.54,14.32-14,37.43-12.28,45.92-30.78C1698.52,1423,1725.83,1447.55,1725.83,1447.55Z"/><path class="cls-27" d="M1735.84,1450.11s-9.26,7.12-28.13,8a75.87,75.87,0,0,1-13.21-.52,62.93,62.93,0,0,1-16.9-4.32L1626.77,1240s55.06-48.11,83.79-18.19c3.75,3.9,6.94,10.66,9.67,19.48C1738.45,1300.09,1735.84,1450.11,1735.84,1450.11Z"/><path class="cls-19" d="M1857.91,974.7s-35.64,130.51-76.35,146.42a33.46,33.46,0,0,0,.93-6.49c.47-9.82.44-21.22.78-33.5,0-1.13.07-2.27.11-3.4a46.32,46.32,0,0,1,.22-4.72l0-.56c0-.29,0-.58,0-.86.43-15.15,1.32-31,2.33-46.84.33-4.92.67-9.82,1.06-14.65C1805,988.44,1829.27,972.88,1857.91,974.7Z"/><path class="cls-25" d="M1644.09,1025s-15.52,1.19-19.51,0-22.75-12.37-29.53-10-23.94,20-19.55,27.93c0,0,8,.2,15.36-7.38s15.36-2.4,14.57-1.4-12.37,5.59-10.38,7.58,17.16,1.6,20.75-.79,30.32.59,30.32.59Z"/><path class="cls-12" d="M1857.91,905.87S1761.38,988.16,1736,996.1s-115.18,25.38-115.18,25.38-2.47,21.25,5.94,29.23c0,0,115.35-6.69,129.72-9.73s121.39-58.5,130.12-62.69S1893.94,899.09,1857.91,905.87Z"/><path class="cls-29" d="M1735.84,1450.11s-9.26,7.12-28.13,8a75.87,75.87,0,0,1-13.21-.52c29-36.67,25.73-216.34,25.73-216.34C1738.45,1300.09,1735.84,1450.11,1735.84,1450.11Z"/><path class="cls-12" d="M1909.18,797.67v.49a3.4,3.4,0,0,1-1.5,3,1.94,1.94,0,0,1-1,.26H1784.35c-1.35,0-2.45-1.47-2.45-3.26v-.49c0-1.8,1.1-3.27,2.45-3.27l27.33-3.51c2.55-20.3,16-36.87,33.86-42.58h0a44.57,44.57,0,0,1,13.7-2.14c25.11,0,45.69,20.75,47.83,47.19,0,.31.05.61.07.92.31.23.49.37.52.38A3.43,3.43,0,0,1,1909.18,797.67Z"/><path class="cls-19" d="M1867.83,793.36c9.12-48.27-21.25-45.17-22.27-45.05a44.57,44.57,0,0,1,13.7-2.14c25.11,0,45.69,20.75,47.83,47.19Z"/><path class="cls-2" d="M2025,1617.93s100.46-25.31,128.8-55.92,52.84,4.08,34.47,23.46S2025,1617.93,2025,1617.93Z"/><path class="cls-2" d="M2423.93,1549.88h-140.8a6.33,6.33,0,0,1-6.31-6.31h0a6.33,6.33,0,0,1,6.31-6.31h140.8a6.33,6.33,0,0,1,6.31,6.31h0A6.33,6.33,0,0,1,2423.93,1549.88Z"/><path class="cls-2" d="M2356.83,1521.73h-76.58a3.45,3.45,0,0,1-3.43-3.43h0a3.44,3.44,0,0,1,3.43-3.43h76.58a3.44,3.44,0,0,1,3.43,3.43h0A3.45,3.45,0,0,1,2356.83,1521.73Z"/><path class="cls-19" d="M904,1285.1c-44.81,80.76-113.71,165.36-113.71,165.36s-151.71-186.21-151.71-270a151.56,151.56,0,0,1,56.08-117.79c5.75,27.44,15.1,58.84,30.08,89.15a70.8,70.8,0,0,0,65.55,97.9,65.6,65.6,0,0,0,15.45-1.79C832.22,1266,864.57,1279.34,904,1285.1Z"/></svg>