<svg id="Layer_1" data-name="Layer 1" xmlns="http://www.w3.org/2000/svg" viewBox="0 0 342.03 95.76"><defs><style>.cls-1{isolation:isolate;}.cls-2{fill:#16a085;}.cls-3{fill:none;stroke:#fff;stroke-miterlimit:10;}.cls-4{fill:#fff;}</style></defs><title>logo-1</title><g class="cls-1"><path class="cls-2" d="M111.64,55.18a16.08,16.08,0,0,0-2.92,2.6c-.9,1-1.81,2.12-2.71,3.3s-1.83,2.42-2.8,3.72a33.94,33.94,0,0,1-3.2,3.73A48.55,48.55,0,0,1,96.1,72a34.69,34.69,0,0,1-4.86,3.21A41.75,41.75,0,0,1,85.17,78a48.55,48.55,0,0,1-7.59,2,19,19,0,0,1-8.76-.29,20.08,20.08,0,0,1-7.34-3.83A22.82,22.82,0,0,1,56,69.25,27.29,27.29,0,0,1,53,60.74a38.16,38.16,0,0,1-.59-7,56.53,56.53,0,0,1,.6-7.86,65.17,65.17,0,0,1,1.75-8.19,61.34,61.34,0,0,1,2.89-8.06,51.74,51.74,0,0,1,4-7.42A39.13,39.13,0,0,1,66.7,15.9a29.42,29.42,0,0,1,6.13-4.72A22.54,22.54,0,0,1,80,8.56a15.66,15.66,0,0,1,5.21-.06,13.54,13.54,0,0,1,5.1,1.86,14.45,14.45,0,0,1,4.19,4A15.89,15.89,0,0,1,97,20.74a17.4,17.4,0,0,1,.15,5.31,24.13,24.13,0,0,1-1.3,5.43,27.63,27.63,0,0,1-2.5,5.13A25.3,25.3,0,0,1,89.92,41a21.36,21.36,0,0,1-4.15,3.29,13.67,13.67,0,0,1-4.6,1.79,10.33,10.33,0,0,1-4.86,0,2.71,2.71,0,0,1-2-2.15c0-.18-.08-.4-.14-.65s-.11-.52-.16-.79a13,13,0,0,1-.17-1.31,4.87,4.87,0,0,1,0-1.28,2.25,2.25,0,0,1,.43-1,1.69,1.69,0,0,1,1-.55,2.11,2.11,0,0,1,.75,0l.74.13q.4.06,1,.09a7,7,0,0,0,1.39-.13,11.77,11.77,0,0,0,4.3-1.8,13.61,13.61,0,0,0,3.57-3.49,14.65,14.65,0,0,0,2.19-4.75,12.49,12.49,0,0,0,.16-5.59,10.39,10.39,0,0,0-1-2.88,6.46,6.46,0,0,0-1.8-2.2,6.81,6.81,0,0,0-2.72-1.25,9,9,0,0,0-3.7,0,11.69,11.69,0,0,0-4.65,2,20,20,0,0,0-4,3.83,28.83,28.83,0,0,0-3.3,5.23,48.2,48.2,0,0,0-2.59,6.19,58.89,58.89,0,0,0-1.85,6.69,61.19,61.19,0,0,0-1.09,6.78,52.65,52.65,0,0,0-.29,6.42A33.44,33.44,0,0,0,63,59.25a21.4,21.4,0,0,0,2.07,6.26,12.79,12.79,0,0,0,3.35,4.1,10.1,10.1,0,0,0,4.48,2,15,15,0,0,0,5.46-.08A24.09,24.09,0,0,0,85,69.29a32.74,32.74,0,0,0,5.57-3.6,50.83,50.83,0,0,0,4.9-4.51c1.55-1.62,3.1-3.24,4.64-4.88s3.14-3.21,4.77-4.73a34.28,34.28,0,0,1,5.34-4.08Z" transform="translate(-51.87 -1.45)"/></g><g class="cls-1"><path class="cls-3" d="M111.64,55.18a16.08,16.08,0,0,0-2.92,2.6c-.9,1-1.81,2.12-2.71,3.3s-1.83,2.42-2.8,3.72a33.94,33.94,0,0,1-3.2,3.73A48.55,48.55,0,0,1,96.1,72a34.69,34.69,0,0,1-4.86,3.21A41.75,41.75,0,0,1,85.17,78a48.55,48.55,0,0,1-7.59,2,19,19,0,0,1-8.76-.29,20.08,20.08,0,0,1-7.34-3.83A22.82,22.82,0,0,1,56,69.25,27.29,27.29,0,0,1,53,60.74a38.16,38.16,0,0,1-.59-7,56.53,56.53,0,0,1,.6-7.86,65.17,65.17,0,0,1,1.75-8.19,61.34,61.34,0,0,1,2.89-8.06,51.74,51.74,0,0,1,4-7.42A39.13,39.13,0,0,1,66.7,15.9a29.42,29.42,0,0,1,6.13-4.72A22.54,22.54,0,0,1,80,8.56a15.66,15.66,0,0,1,5.21-.06,13.54,13.54,0,0,1,5.1,1.86,14.45,14.45,0,0,1,4.19,4A15.89,15.89,0,0,1,97,20.74a17.4,17.4,0,0,1,.15,5.31,24.13,24.13,0,0,1-1.3,5.43,27.63,27.63,0,0,1-2.5,5.13A25.3,25.3,0,0,1,89.92,41a21.36,21.36,0,0,1-4.15,3.29,13.67,13.67,0,0,1-4.6,1.79,10.33,10.33,0,0,1-4.86,0,2.71,2.71,0,0,1-2-2.15c0-.18-.08-.4-.14-.65s-.11-.52-.16-.79a13,13,0,0,1-.17-1.31,4.87,4.87,0,0,1,0-1.28,2.25,2.25,0,0,1,.43-1,1.69,1.69,0,0,1,1-.55,2.11,2.11,0,0,1,.75,0l.74.13q.4.06,1,.09a7,7,0,0,0,1.39-.13,11.77,11.77,0,0,0,4.3-1.8,13.61,13.61,0,0,0,3.57-3.49,14.65,14.65,0,0,0,2.19-4.75,12.49,12.49,0,0,0,.16-5.59,10.39,10.39,0,0,0-1-2.88,6.46,6.46,0,0,0-1.8-2.2,6.81,6.81,0,0,0-2.72-1.25,9,9,0,0,0-3.7,0,11.69,11.69,0,0,0-4.65,2,20,20,0,0,0-4,3.83,28.83,28.83,0,0,0-3.3,5.23,48.2,48.2,0,0,0-2.59,6.19,58.89,58.89,0,0,0-1.85,6.69,61.19,61.19,0,0,0-1.09,6.78,52.65,52.65,0,0,0-.29,6.42A33.44,33.44,0,0,0,63,59.25a21.4,21.4,0,0,0,2.07,6.26,12.79,12.79,0,0,0,3.35,4.1,10.1,10.1,0,0,0,4.48,2,15,15,0,0,0,5.46-.08A24.09,24.09,0,0,0,85,69.29a32.74,32.74,0,0,0,5.57-3.6,50.83,50.83,0,0,0,4.9-4.51c1.55-1.62,3.1-3.24,4.64-4.88s3.14-3.21,4.77-4.73a34.28,34.28,0,0,1,5.34-4.08Z" transform="translate(-51.87 -1.45)"/></g><g class="cls-1"><path class="cls-2" d="M129,58.53a31.62,31.62,0,0,1-2.84,2.8,33.25,33.25,0,0,1-3.75,2.85,30.82,30.82,0,0,1-4.2,2.31A13.8,13.8,0,0,1,114,67.7a8.14,8.14,0,0,1-3.11-.17,5.05,5.05,0,0,1-2.15-1.18,5.56,5.56,0,0,1-1.35-2.09,12.33,12.33,0,0,1-.65-2.84,31.9,31.9,0,0,1-.08-5.17,69.53,69.53,0,0,1,.54-6.94c.2-1,.59-3.29,1.16-6.79q.87-4.31,1-5.6a2.87,2.87,0,0,1,.79-1.69,6.33,6.33,0,0,1,1.5-1.21,8.71,8.71,0,0,1,1.82-.81,9.23,9.23,0,0,1,1.74-.39,2.71,2.71,0,0,1,2,.32,2,2,0,0,1,.67,1.39,9,9,0,0,1-.12,2.2c-.13,1-.29,2.05-.46,3.28s-.45,2.81-.84,4.75a34.86,34.86,0,0,0-.69,4.93c-.08,1.35-.21,2.69-.39,4a14.51,14.51,0,0,0-.11,3.62,7.43,7.43,0,0,0,.62,2.45,1.4,1.4,0,0,0,1.53.76,5.79,5.79,0,0,0,2.69-1.18A24.09,24.09,0,0,0,123,56.92c1-.94,1.88-1.91,2.78-2.9s1.7-1.84,2.4-2.56Zm-19.61-34.8a5.92,5.92,0,0,1,1.06-3.9,6.42,6.42,0,0,1,1.92-1.75,7.75,7.75,0,0,1,3.19-1,9.45,9.45,0,0,1,2.32,0,5.64,5.64,0,0,1,2,.66,4,4,0,0,1,1.44,1.38,5.15,5.15,0,0,1,.72,2.2,6.93,6.93,0,0,1-.13,2.36,5.44,5.44,0,0,1-1,2.14,6.11,6.11,0,0,1-2,1.65,7.69,7.69,0,0,1-3,.89,6.17,6.17,0,0,1-4.69-1A5.27,5.27,0,0,1,109.35,23.73Z" transform="translate(-51.87 -1.45)"/></g><g class="cls-1"><path class="cls-3" d="M129,58.53a31.62,31.62,0,0,1-2.84,2.8,33.25,33.25,0,0,1-3.75,2.85,30.82,30.82,0,0,1-4.2,2.31A13.8,13.8,0,0,1,114,67.7a8.14,8.14,0,0,1-3.11-.17,5.05,5.05,0,0,1-2.15-1.18,5.56,5.56,0,0,1-1.35-2.09,12.33,12.33,0,0,1-.65-2.84,31.9,31.9,0,0,1-.08-5.17,69.53,69.53,0,0,1,.54-6.94c.2-1,.59-3.29,1.16-6.79q.87-4.31,1-5.6a2.87,2.87,0,0,1,.79-1.69,6.33,6.33,0,0,1,1.5-1.21,8.71,8.71,0,0,1,1.82-.81,9.23,9.23,0,0,1,1.74-.39,2.71,2.71,0,0,1,2,.32,2,2,0,0,1,.67,1.39,9,9,0,0,1-.12,2.2c-.13,1-.29,2.05-.46,3.28s-.45,2.81-.84,4.75a34.86,34.86,0,0,0-.69,4.93c-.08,1.35-.21,2.69-.39,4a14.51,14.51,0,0,0-.11,3.62,7.43,7.43,0,0,0,.62,2.45,1.4,1.4,0,0,0,1.53.76,5.79,5.79,0,0,0,2.69-1.18A24.09,24.09,0,0,0,123,56.92c1-.94,1.88-1.91,2.78-2.9s1.7-1.84,2.4-2.56Zm-19.61-34.8a5.92,5.92,0,0,1,1.06-3.9,6.42,6.42,0,0,1,1.92-1.75,7.75,7.75,0,0,1,3.19-1,9.45,9.45,0,0,1,2.32,0,5.64,5.64,0,0,1,2,.66,4,4,0,0,1,1.44,1.38,5.15,5.15,0,0,1,.72,2.2,6.93,6.93,0,0,1-.13,2.36,5.44,5.44,0,0,1-1,2.14,6.11,6.11,0,0,1-2,1.65,7.69,7.69,0,0,1-3,.89,6.17,6.17,0,0,1-4.69-1A5.27,5.27,0,0,1,109.35,23.73Z" transform="translate(-51.87 -1.45)"/></g><g class="cls-1"><path class="cls-2" d="M155.56,56.09q-3.23,2.23-5.73,3.91t-4.49,2.83a27.47,27.47,0,0,1-3.54,1.76,10,10,0,0,1-2.85.72,7.28,7.28,0,0,1-4.8-1.24,12.29,12.29,0,0,1-3.75-4.38,29,29,0,0,1-2.62-7.18,62.34,62.34,0,0,1-1.45-9.65c-.11-1.4-.18-2.9-.19-4.5s0-3.19.12-4.77c-.72-.05-1.27-.1-1.67-.16l-1.26-.18c-.44,0-1-.11-1.68-.16s-1.66-.1-2.94-.16a2.83,2.83,0,0,1-1.34-.34,2,2,0,0,1-.73-.73,2.52,2.52,0,0,1-.32-.92,8,8,0,0,1-.1-.83.92.92,0,0,1,.62-.9,7.16,7.16,0,0,1,1.72-.58,20.58,20.58,0,0,1,2.35-.35c.86-.08,1.68-.14,2.47-.18s1.49-.07,2.11-.11a8.08,8.08,0,0,0,1.29-.15,77.63,77.63,0,0,1,1.67-9.33,51.79,51.79,0,0,1,2.63-8.13,22,22,0,0,1,3.49-5.83,6.4,6.4,0,0,1,4.32-2.43,4.8,4.8,0,0,1,2.82.62A7.37,7.37,0,0,1,144,4.81,11.78,11.78,0,0,1,145.62,8a16.22,16.22,0,0,1,.78,3.86,13.92,13.92,0,0,1-.21,3.59,26.34,26.34,0,0,1-1,3.91,38.14,38.14,0,0,1-1.67,4.08q-1,2.08-2.09,4.14a2.54,2.54,0,0,1,1-.13c.5,0,1.07,0,1.71,0l2.09-.11,2.18-.11,2-.08,1.51-.05a1.14,1.14,0,0,1,1.08.7,4.82,4.82,0,0,1,.46,1.85,3.17,3.17,0,0,1-.53,2.18,2.05,2.05,0,0,1-1.48.95L138,33.79c-.61,1-1.22,2-1.84,2.91s-1.2,1.82-1.73,2.59c0,1.46,0,2.89.1,4.3,0,.6.05,1.23.07,1.88l.09,1.91q0,.94.09,1.83c0,.58.07,1.12.11,1.61a12.5,12.5,0,0,0,.6,3.16,5.73,5.73,0,0,0,1.19,2,3.78,3.78,0,0,0,1.73,1.06,6.05,6.05,0,0,0,2.2.2,6.16,6.16,0,0,0,1.81-.5,19.23,19.23,0,0,0,2.34-1.15c.85-.48,1.73-1,2.66-1.68s1.84-1.32,2.73-2.07,1.75-1.51,2.55-2.31a25.42,25.42,0,0,0,2.17-2.45ZM140.82,12.6a7.85,7.85,0,0,0-.12-.85,3.2,3.2,0,0,0-.3-.87,1.56,1.56,0,0,0-1.66-.85c-.61.05-1.19.63-1.72,1.74A23.35,23.35,0,0,0,135.55,16c-.45,1.71-.84,3.58-1.19,5.61s-.65,4-.92,5.92h2.16c.61-1.24,1.24-2.57,1.89-4s1.23-2.84,1.74-4.22.91-2.66,1.21-3.84A9.1,9.1,0,0,0,140.82,12.6Z" transform="translate(-51.87 -1.45)"/></g><g class="cls-1"><path class="cls-3" d="M155.56,56.09q-3.23,2.23-5.73,3.91t-4.49,2.83a27.47,27.47,0,0,1-3.54,1.76,10,10,0,0,1-2.85.72,7.28,7.28,0,0,1-4.8-1.24,12.29,12.29,0,0,1-3.75-4.38,29,29,0,0,1-2.62-7.18,62.34,62.34,0,0,1-1.45-9.65c-.11-1.4-.18-2.9-.19-4.5s0-3.19.12-4.77c-.72-.05-1.27-.1-1.67-.16l-1.26-.18c-.44,0-1-.11-1.68-.16s-1.66-.1-2.94-.16a2.83,2.83,0,0,1-1.34-.34,2,2,0,0,1-.73-.73,2.52,2.52,0,0,1-.32-.92,8,8,0,0,1-.1-.83.92.92,0,0,1,.62-.9,7.16,7.16,0,0,1,1.72-.58,20.58,20.58,0,0,1,2.35-.35c.86-.08,1.68-.14,2.47-.18s1.49-.07,2.11-.11a8.08,8.08,0,0,0,1.29-.15,77.63,77.63,0,0,1,1.67-9.33,51.79,51.79,0,0,1,2.63-8.13,22,22,0,0,1,3.49-5.83,6.4,6.4,0,0,1,4.32-2.43,4.8,4.8,0,0,1,2.82.62A7.37,7.37,0,0,1,144,4.81,11.78,11.78,0,0,1,145.62,8a16.22,16.22,0,0,1,.78,3.86,13.92,13.92,0,0,1-.21,3.59,26.34,26.34,0,0,1-1,3.91,38.14,38.14,0,0,1-1.67,4.08q-1,2.08-2.09,4.14a2.54,2.54,0,0,1,1-.13c.5,0,1.07,0,1.71,0l2.09-.11,2.18-.11,2-.08,1.51-.05a1.14,1.14,0,0,1,1.08.7,4.82,4.82,0,0,1,.46,1.85,3.17,3.17,0,0,1-.53,2.18,2.05,2.05,0,0,1-1.48.95L138,33.79c-.61,1-1.22,2-1.84,2.91s-1.2,1.82-1.73,2.59c0,1.46,0,2.89.1,4.3,0,.6.05,1.23.07,1.88l.09,1.91q0,.94.09,1.83c0,.58.07,1.12.11,1.61a12.5,12.5,0,0,0,.6,3.16,5.73,5.73,0,0,0,1.19,2,3.78,3.78,0,0,0,1.73,1.06,6.05,6.05,0,0,0,2.2.2,6.16,6.16,0,0,0,1.81-.5,19.23,19.23,0,0,0,2.34-1.15c.85-.48,1.73-1,2.66-1.68s1.84-1.32,2.73-2.07,1.75-1.51,2.55-2.31a25.42,25.42,0,0,0,2.17-2.45ZM140.82,12.6a7.85,7.85,0,0,0-.12-.85,3.2,3.2,0,0,0-.3-.87,1.56,1.56,0,0,0-1.66-.85c-.61.05-1.19.63-1.72,1.74A23.35,23.35,0,0,0,135.55,16c-.45,1.71-.84,3.58-1.19,5.61s-.65,4-.92,5.92h2.16c.61-1.24,1.24-2.57,1.89-4s1.23-2.84,1.74-4.22.91-2.66,1.21-3.84A9.1,9.1,0,0,0,140.82,12.6Z" transform="translate(-51.87 -1.45)"/></g><g class="cls-1"><path class="cls-2" d="M166.8,64.34l.6-4.28a18.71,18.71,0,0,1-3.84,2.85,8.92,8.92,0,0,1-3.95,1.19,8.3,8.3,0,0,1-3.32-.56,8.63,8.63,0,0,1-2.91-1.85,9.65,9.65,0,0,1-2.09-3,11.34,11.34,0,0,1-.91-4.14,35,35,0,0,1,.2-5.62c.21-1.71.48-3.82.79-6.34a30.71,30.71,0,0,1,1.22-6c.51-1.47,1.1-2.95,1.76-4.46a5.59,5.59,0,0,1,2.23-2.5,6.11,6.11,0,0,1,2.91-.94,3.6,3.6,0,0,1,2.14.53,2.17,2.17,0,0,1,1,1.88,5.14,5.14,0,0,1-.05.85,6.35,6.35,0,0,1-.25,1,22.3,22.3,0,0,0-.9,3.88q-.33,2.25-.9,6c-.38,2.5-.67,4.48-.89,5.94a21.42,21.42,0,0,0-.27,3.9,11.9,11.9,0,0,0,.2,1.72,5,5,0,0,0,.5,1.47,2.89,2.89,0,0,0,.88,1,2.17,2.17,0,0,0,1.35.35A3.12,3.12,0,0,0,164.56,56a10.6,10.6,0,0,0,1.72-2.8,18.73,18.73,0,0,0,1.12-3.34,19.67,19.67,0,0,0,.5-2.86l2.29-13.26a5.37,5.37,0,0,1,.9-2.15,7.49,7.49,0,0,1,1.6-1.63,7.25,7.25,0,0,1,1.93-1,6.66,6.66,0,0,1,1.92-.4,3.36,3.36,0,0,1,1.85.41,1.61,1.61,0,0,1,.8,1.46,3,3,0,0,1-.07.75c-.09.63-.2,1.47-.34,2.53s-.3,2.26-.49,3.61-.43,3.24-.75,5.68-.59,4.39-.79,5.87q-.69,5.27-1.37,11.29a25.35,25.35,0,0,0,2.24-1.57,24.42,24.42,0,0,0,2.66-2.46,48.06,48.06,0,0,0,3.22-3.84q1.78-2.31,4-5.74l2,7.76a15.61,15.61,0,0,1-1.53,2.27c-.68.81-1.39,1.61-2.16,2.39-1.13,1.12-1.95,1.87-2.45,2.27-.16.12-1,.83-2.48,2.12q-.67.61-4.53,3.42a3.48,3.48,0,0,0-1.22,2.35q-.3,1.68-.57,6.24c-.1.87-.16,1.53-.18,2-.09,1.13-.19,2.2-.27,3.22a29.53,29.53,0,0,1-.55,3.5,26.47,26.47,0,0,1-1,3.63A17.87,17.87,0,0,1,170.89,91a13.76,13.76,0,0,1-2.29,2.86,10.22,10.22,0,0,1-3.1,2,11.42,11.42,0,0,1-4,.87,12.82,12.82,0,0,1-3.34-.27,9.24,9.24,0,0,1-2.83-1.14,6.38,6.38,0,0,1-2.17-2.21A8.21,8.21,0,0,1,152,89.69a14,14,0,0,1,1.72-8c.81-1.58,1.37-2.67,1.7-3.28s.85-1.5,1.55-2.65a25.71,25.71,0,0,1,2.24-3.08c1.56-1.92,2.86-3.46,3.88-4.62A52.52,52.52,0,0,1,166.8,64.34Zm.46,8.47a19.13,19.13,0,0,0-4.63,5.82,39.81,39.81,0,0,0-3.49,8q-1,3.42,1.29,3.33a4.89,4.89,0,0,0,1.5-.27,3.12,3.12,0,0,0,1.2-.81,6.26,6.26,0,0,0,.94-1.23,11.45,11.45,0,0,0,.82-1.86c.29-.8.54-1.59.76-2.36s.48-1.8.81-3.08a13.37,13.37,0,0,0,.37-2.29c.07-.83.15-1.84.25-3S167.24,73.13,167.26,72.81Z" transform="translate(-51.87 -1.45)"/></g><g class="cls-1"><path class="cls-3" d="M166.8,64.34l.6-4.28a18.71,18.71,0,0,1-3.84,2.85,8.92,8.92,0,0,1-3.95,1.19,8.3,8.3,0,0,1-3.32-.56,8.63,8.63,0,0,1-2.91-1.85,9.65,9.65,0,0,1-2.09-3,11.34,11.34,0,0,1-.91-4.14,35,35,0,0,1,.2-5.62c.21-1.71.48-3.82.79-6.34a30.71,30.71,0,0,1,1.22-6c.51-1.47,1.1-2.95,1.76-4.46a5.59,5.59,0,0,1,2.23-2.5,6.11,6.11,0,0,1,2.91-.94,3.6,3.6,0,0,1,2.14.53,2.17,2.17,0,0,1,1,1.88,5.14,5.14,0,0,1-.05.85,6.35,6.35,0,0,1-.25,1,22.3,22.3,0,0,0-.9,3.88q-.33,2.25-.9,6c-.38,2.5-.67,4.48-.89,5.94a21.42,21.42,0,0,0-.27,3.9,11.9,11.9,0,0,0,.2,1.72,5,5,0,0,0,.5,1.47,2.89,2.89,0,0,0,.88,1,2.17,2.17,0,0,0,1.35.35A3.12,3.12,0,0,0,164.56,56a10.6,10.6,0,0,0,1.72-2.8,18.73,18.73,0,0,0,1.12-3.34,19.67,19.67,0,0,0,.5-2.86l2.29-13.26a5.37,5.37,0,0,1,.9-2.15,7.49,7.49,0,0,1,1.6-1.63,7.25,7.25,0,0,1,1.93-1,6.66,6.66,0,0,1,1.92-.4,3.36,3.36,0,0,1,1.85.41,1.61,1.61,0,0,1,.8,1.46,3,3,0,0,1-.07.75c-.09.63-.2,1.47-.34,2.53s-.3,2.26-.49,3.61-.43,3.24-.75,5.68-.59,4.39-.79,5.87q-.69,5.27-1.37,11.29a25.35,25.35,0,0,0,2.24-1.57,24.42,24.42,0,0,0,2.66-2.46,48.06,48.06,0,0,0,3.22-3.84q1.78-2.31,4-5.74l2,7.76a15.61,15.61,0,0,1-1.53,2.27c-.68.81-1.39,1.61-2.16,2.39-1.13,1.12-1.95,1.87-2.45,2.27-.16.12-1,.83-2.48,2.12q-.67.61-4.53,3.42a3.48,3.48,0,0,0-1.22,2.35q-.3,1.68-.57,6.24c-.1.87-.16,1.53-.18,2-.09,1.13-.19,2.2-.27,3.22a29.53,29.53,0,0,1-.55,3.5,26.47,26.47,0,0,1-1,3.63A17.87,17.87,0,0,1,170.89,91a13.76,13.76,0,0,1-2.29,2.86,10.22,10.22,0,0,1-3.1,2,11.42,11.42,0,0,1-4,.87,12.82,12.82,0,0,1-3.34-.27,9.24,9.24,0,0,1-2.83-1.14,6.38,6.38,0,0,1-2.17-2.21A8.21,8.21,0,0,1,152,89.69a14,14,0,0,1,1.72-8c.81-1.58,1.37-2.67,1.7-3.28s.85-1.5,1.55-2.65a25.71,25.71,0,0,1,2.24-3.08c1.56-1.92,2.86-3.46,3.88-4.62A52.52,52.52,0,0,1,166.8,64.34Zm.46,8.47a19.13,19.13,0,0,0-4.63,5.82,39.81,39.81,0,0,0-3.49,8q-1,3.42,1.29,3.33a4.89,4.89,0,0,0,1.5-.27,3.12,3.12,0,0,0,1.2-.81,6.26,6.26,0,0,0,.94-1.23,11.45,11.45,0,0,0,.82-1.86c.29-.8.54-1.59.76-2.36s.48-1.8.81-3.08a13.37,13.37,0,0,0,.37-2.29c.07-.83.15-1.84.25-3S167.24,73.13,167.26,72.81Z" transform="translate(-51.87 -1.45)"/></g><g class="cls-1"><path class="cls-2" d="M209,17.34a6.85,6.85,0,0,0,1.23,4.18,15.56,15.56,0,0,0,3.48,3.5,38.75,38.75,0,0,0,5,3.12l5.71,3.07q2.93,1.59,5.71,3.37a28.87,28.87,0,0,1,4.94,4,17.7,17.7,0,0,1,3.45,5,13.72,13.72,0,0,1,1.16,6.22,16.11,16.11,0,0,1-1.19,5.79,16.39,16.39,0,0,1-2.94,4.68,19.69,19.69,0,0,1-4.31,3.6,26.22,26.22,0,0,1-5.32,2.51A32.9,32.9,0,0,1,220,67.76a36.3,36.3,0,0,1-6.24.36,34,34,0,0,1-8.51-1.33,23.86,23.86,0,0,1-7.29-3.46,16.88,16.88,0,0,1-5-5.56,14.57,14.57,0,0,1-1.73-7.67,10.3,10.3,0,0,1,.84-3.94,9.61,9.61,0,0,1,1.88-2.79,7.76,7.76,0,0,1,2.39-1.66,5.59,5.59,0,0,1,2.37-.5,2.84,2.84,0,0,1,1.87.67,2.34,2.34,0,0,1,.7,1.94,6.59,6.59,0,0,1-.18,1.26l-.33,1.45c-.11.52-.23,1.1-.34,1.73a14.31,14.31,0,0,0-.19,2.07,7.88,7.88,0,0,0,1,4.29,9.21,9.21,0,0,0,2.89,3,14,14,0,0,0,4.23,1.85,22.17,22.17,0,0,0,5,.71,25.54,25.54,0,0,0,6.13-.55,19.64,19.64,0,0,0,5.55-2A12.94,12.94,0,0,0,229,54.24a7.92,7.92,0,0,0,1.65-4.75,7.7,7.7,0,0,0-1.21-4.5A15.78,15.78,0,0,0,226,41.25a36.58,36.58,0,0,0-5-3.3l-5.71-3.16c-1.94-1.07-3.84-2.18-5.7-3.35a30.92,30.92,0,0,1-5-3.83A16.73,16.73,0,0,1,201.18,23,11.64,11.64,0,0,1,200,17.35a13,13,0,0,1,1.6-5.79,15.26,15.26,0,0,1,4.44-5,23,23,0,0,1,7.25-3.47A32.43,32.43,0,0,1,223.37,2a24,24,0,0,1,7.12,1.31,21.3,21.3,0,0,1,6.15,3.28,16.34,16.34,0,0,1,4.27,4.91,11.71,11.71,0,0,1,1.48,6.21,13,13,0,0,1-.8,4.09,18.67,18.67,0,0,1-2.33,4.33,10.91,10.91,0,0,1-3.32,3.19,6.22,6.22,0,0,1-3.18,1,2.49,2.49,0,0,1-1.7-.67,2.36,2.36,0,0,1-.61-1.86,6.58,6.58,0,0,1,.49-2.15,13.49,13.49,0,0,1,1.54-2.82,13.85,13.85,0,0,0,1.5-2.85,7.56,7.56,0,0,0,.54-2.49,5.21,5.21,0,0,0-.88-3.17A7.58,7.58,0,0,0,231,11.91,14.39,14.39,0,0,0,227,10.42a27.81,27.81,0,0,0-5.24-.61,18.64,18.64,0,0,0-5.52.55,12.94,12.94,0,0,0-4,1.75,7.68,7.68,0,0,0-2.4,2.47A5.92,5.92,0,0,0,209,17.34Z" transform="translate(-51.87 -1.45)"/></g><g class="cls-1"><path class="cls-3" d="M209,17.34a6.85,6.85,0,0,0,1.23,4.18,15.56,15.56,0,0,0,3.48,3.5,38.75,38.75,0,0,0,5,3.12l5.71,3.07q2.93,1.59,5.71,3.37a28.87,28.87,0,0,1,4.94,4,17.7,17.7,0,0,1,3.45,5,13.72,13.72,0,0,1,1.16,6.22,16.11,16.11,0,0,1-1.19,5.79,16.39,16.39,0,0,1-2.94,4.68,19.69,19.69,0,0,1-4.31,3.6,26.22,26.22,0,0,1-5.32,2.51A32.9,32.9,0,0,1,220,67.76a36.3,36.3,0,0,1-6.24.36,34,34,0,0,1-8.51-1.33,23.86,23.86,0,0,1-7.29-3.46,16.88,16.88,0,0,1-5-5.56,14.57,14.57,0,0,1-1.73-7.67,10.3,10.3,0,0,1,.84-3.94,9.61,9.61,0,0,1,1.88-2.79,7.76,7.76,0,0,1,2.39-1.66,5.59,5.59,0,0,1,2.37-.5,2.84,2.84,0,0,1,1.87.67,2.34,2.34,0,0,1,.7,1.94,6.59,6.59,0,0,1-.18,1.26l-.33,1.45c-.11.52-.23,1.1-.34,1.73a14.31,14.31,0,0,0-.19,2.07,7.88,7.88,0,0,0,1,4.29,9.21,9.21,0,0,0,2.89,3,14,14,0,0,0,4.23,1.85,22.17,22.17,0,0,0,5,.71,25.54,25.54,0,0,0,6.13-.55,19.64,19.64,0,0,0,5.55-2A12.94,12.94,0,0,0,229,54.24a7.92,7.92,0,0,0,1.65-4.75,7.7,7.7,0,0,0-1.21-4.5A15.78,15.78,0,0,0,226,41.25a36.58,36.58,0,0,0-5-3.3l-5.71-3.16c-1.94-1.07-3.84-2.18-5.7-3.35a30.92,30.92,0,0,1-5-3.83A16.73,16.73,0,0,1,201.18,23,11.64,11.64,0,0,1,200,17.35a13,13,0,0,1,1.6-5.79,15.26,15.26,0,0,1,4.44-5,23,23,0,0,1,7.25-3.47A32.43,32.43,0,0,1,223.37,2a24,24,0,0,1,7.12,1.31,21.3,21.3,0,0,1,6.15,3.28,16.34,16.34,0,0,1,4.27,4.91,11.71,11.71,0,0,1,1.48,6.21,13,13,0,0,1-.8,4.09,18.67,18.67,0,0,1-2.33,4.33,10.91,10.91,0,0,1-3.32,3.19,6.22,6.22,0,0,1-3.18,1,2.49,2.49,0,0,1-1.7-.67,2.36,2.36,0,0,1-.61-1.86,6.58,6.58,0,0,1,.49-2.15,13.49,13.49,0,0,1,1.54-2.82,13.85,13.85,0,0,0,1.5-2.85,7.56,7.56,0,0,0,.54-2.49,5.21,5.21,0,0,0-.88-3.17A7.58,7.58,0,0,0,231,11.91,14.39,14.39,0,0,0,227,10.42a27.81,27.81,0,0,0-5.24-.61,18.64,18.64,0,0,0-5.52.55,12.94,12.94,0,0,0-4,1.75,7.68,7.68,0,0,0-2.4,2.47A5.92,5.92,0,0,0,209,17.34Z" transform="translate(-51.87 -1.45)"/></g><g class="cls-1"><path class="cls-2" d="M262.86,49.67a50,50,0,0,1-3.14,6.68,32.79,32.79,0,0,1-3.53,5.1,15.49,15.49,0,0,1-3.62,3.2,5.43,5.43,0,0,1-3.4.9q-2.62-.28-3.42-4.43t.09-12c.28-2.58.54-4.86.76-6.84s.45-4,.69-5.94.31-2.61.21-1.9-.2,1.35-.29,2c0,.14-.06.39-.11.75s.06.19.32-.5a19.25,19.25,0,0,1,1-2.14,9.1,9.1,0,0,1,1.44-2,6.76,6.76,0,0,1,1.91-1.37,4.4,4.4,0,0,1,2.46-.35l.89.17a4.5,4.5,0,0,1,2.48.88,1.87,1.87,0,0,1,.7,1.71l-5.06,19.92.46,0q1.94-3.37,3.64-6.87c1.15-2.33,2.12-4.24,2.94-5.72s1.58-2.77,2.3-3.87a13.4,13.4,0,0,1,2.25-2.67A7.06,7.06,0,0,1,267.38,33a7.74,7.74,0,0,1,3.18-.23,4,4,0,0,1,2.28.87,1.93,1.93,0,0,1,.64,1.71L268,55.17l.52,0,10.89-19a3.84,3.84,0,0,1,2-1.52,6.91,6.91,0,0,1,3.39-.38,5.72,5.72,0,0,1,3.11,1.17,2.5,2.5,0,0,1,1,2.24,7.52,7.52,0,0,1-.57,2.06c-.3.71-.61,1.38-.94,2s-.63,1.13-.91,1.55L286,44q-.92,1.3-1.95,3.09c-.68,1.2-1.22,2.08-1.61,2.64s-.89,1.27-1.26,1.84a9.86,9.86,0,0,0,1,2.57A8.55,8.55,0,0,0,283.62,56a3.63,3.63,0,0,0,2.25,1,7.21,7.21,0,0,0,2.71-.32,22.12,22.12,0,0,0,3-1.06c1.11-.46,2.25-1,3.43-1.63l-.94,8.4a22.84,22.84,0,0,1-5,1.92,13.71,13.71,0,0,1-4.82.4,13.05,13.05,0,0,1-3.31-.82,7.75,7.75,0,0,1-2.63-1.7,6.69,6.69,0,0,1-1.64-2.68,8.94,8.94,0,0,1-.34-3.75,52.9,52.9,0,0,1-3,4.82,27.29,27.29,0,0,1-3.08,3.69,13.29,13.29,0,0,1-3,2.31,5,5,0,0,1-2.89.63c-.33,0-.58-.32-.77-.85a8.2,8.2,0,0,1-.39-2.08c-.07-.87-.09-1.87-.07-3s.07-2.33.15-3.59.19-2.55.31-3.88.26-2.61.4-3.86Z" transform="translate(-51.87 -1.45)"/></g><g class="cls-1"><path class="cls-3" d="M262.86,49.67a50,50,0,0,1-3.14,6.68,32.79,32.79,0,0,1-3.53,5.1,15.49,15.49,0,0,1-3.62,3.2,5.43,5.43,0,0,1-3.4.9q-2.62-.28-3.42-4.43t.09-12c.28-2.58.54-4.86.76-6.84s.45-4,.69-5.94.31-2.61.21-1.9-.2,1.35-.29,2c0,.14-.06.39-.11.75s.06.19.32-.5a19.25,19.25,0,0,1,1-2.14,9.1,9.1,0,0,1,1.44-2,6.76,6.76,0,0,1,1.91-1.37,4.4,4.4,0,0,1,2.46-.35l.89.17a4.5,4.5,0,0,1,2.48.88,1.87,1.87,0,0,1,.7,1.71l-5.06,19.92.46,0q1.94-3.37,3.64-6.87c1.15-2.33,2.12-4.24,2.94-5.72s1.58-2.77,2.3-3.87a13.4,13.4,0,0,1,2.25-2.67A7.06,7.06,0,0,1,267.38,33a7.74,7.74,0,0,1,3.18-.23,4,4,0,0,1,2.28.87,1.93,1.93,0,0,1,.64,1.71L268,55.17l.52,0,10.89-19a3.84,3.84,0,0,1,2-1.52,6.91,6.91,0,0,1,3.39-.38,5.72,5.72,0,0,1,3.11,1.17,2.5,2.5,0,0,1,1,2.24,7.52,7.52,0,0,1-.57,2.06c-.3.71-.61,1.38-.94,2s-.63,1.13-.91,1.55L286,44q-.92,1.3-1.95,3.09c-.68,1.2-1.22,2.08-1.61,2.64s-.89,1.27-1.26,1.84a9.86,9.86,0,0,0,1,2.57A8.55,8.55,0,0,0,283.62,56a3.63,3.63,0,0,0,2.25,1,7.21,7.21,0,0,0,2.71-.32,22.12,22.12,0,0,0,3-1.06c1.11-.46,2.25-1,3.43-1.63l-.94,8.4a22.84,22.84,0,0,1-5,1.92,13.71,13.71,0,0,1-4.82.4,13.05,13.05,0,0,1-3.31-.82,7.75,7.75,0,0,1-2.63-1.7,6.69,6.69,0,0,1-1.64-2.68,8.94,8.94,0,0,1-.34-3.75,52.9,52.9,0,0,1-3,4.82,27.29,27.29,0,0,1-3.08,3.69,13.29,13.29,0,0,1-3,2.31,5,5,0,0,1-2.89.63c-.33,0-.58-.32-.77-.85a8.2,8.2,0,0,1-.39-2.08c-.07-.87-.09-1.87-.07-3s.07-2.33.15-3.59.19-2.55.31-3.88.26-2.61.4-3.86Z" transform="translate(-51.87 -1.45)"/></g><g class="cls-1"><path class="cls-2" d="M312.89,66.62a30.56,30.56,0,0,1-3.5,1.95A33.21,33.21,0,0,1,305,70.33a31.2,31.2,0,0,1-4.68,1.12,14,14,0,0,1-4.37,0,8.5,8.5,0,0,1-3-1,5.15,5.15,0,0,1-1.77-1.73,5.51,5.51,0,0,1-.74-2.38,11.64,11.64,0,0,1,.13-2.91,32,32,0,0,1,1.3-5q2-5.87,2.37-6.57c.47-.94,1.46-3,3-6.27q2-3.93,2.49-5.13a2.83,2.83,0,0,1,1.2-1.43,6.84,6.84,0,0,1,1.79-.78,8.76,8.76,0,0,1,2-.29,9.17,9.17,0,0,1,1.79.08,2.79,2.79,0,0,1,1.86.85,2.09,2.09,0,0,1,.28,1.53,9.73,9.73,0,0,1-.7,2.1l-1.33,3.05c-.49,1.14-1.18,2.59-2.08,4.37a35,35,0,0,0-2,4.58c-.43,1.29-.91,2.55-1.45,3.8A14.77,14.77,0,0,0,300,61.82a7.32,7.32,0,0,0-.05,2.54,1.38,1.38,0,0,0,1.28,1.14,5.65,5.65,0,0,0,2.91-.42,25,25,0,0,0,3.43-1.61c1.17-.65,2.33-1.34,3.46-2.06s2.14-1.33,3-1.83ZM303.2,27.71a5.88,5.88,0,0,1,.64-1.77,5.68,5.68,0,0,1,1.44-1.72A6.19,6.19,0,0,1,307.6,23a7.65,7.65,0,0,1,3.34-.09,9.32,9.32,0,0,1,2.25.64,5.75,5.75,0,0,1,1.74,1.16,4.13,4.13,0,0,1,1,1.73,5.07,5.07,0,0,1,.11,2.32,7.46,7.46,0,0,1-.75,2.25,5.44,5.44,0,0,1-1.54,1.8,6.23,6.23,0,0,1-2.32,1.09,7.93,7.93,0,0,1-3.13.05A6.25,6.25,0,0,1,304,31.82,5.37,5.37,0,0,1,303.2,27.71Z" transform="translate(-51.87 -1.45)"/></g><g class="cls-1"><path class="cls-3" d="M312.89,66.62a30.56,30.56,0,0,1-3.5,1.95A33.21,33.21,0,0,1,305,70.33a31.2,31.2,0,0,1-4.68,1.12,14,14,0,0,1-4.37,0,8.5,8.5,0,0,1-3-1,5.15,5.15,0,0,1-1.77-1.73,5.51,5.51,0,0,1-.74-2.38,11.64,11.64,0,0,1,.13-2.91,32,32,0,0,1,1.3-5q2-5.87,2.37-6.57c.47-.94,1.46-3,3-6.27q2-3.93,2.49-5.13a2.83,2.83,0,0,1,1.2-1.43,6.84,6.84,0,0,1,1.79-.78,8.76,8.76,0,0,1,2-.29,9.17,9.17,0,0,1,1.79.08,2.79,2.79,0,0,1,1.86.85,2.09,2.09,0,0,1,.28,1.53,9.73,9.73,0,0,1-.7,2.1l-1.33,3.05c-.49,1.14-1.18,2.59-2.08,4.37a35,35,0,0,0-2,4.58c-.43,1.29-.91,2.55-1.45,3.8A14.77,14.77,0,0,0,300,61.82a7.32,7.32,0,0,0-.05,2.54,1.38,1.38,0,0,0,1.28,1.14,5.65,5.65,0,0,0,2.91-.42,25,25,0,0,0,3.43-1.61c1.17-.65,2.33-1.34,3.46-2.06s2.14-1.33,3-1.83ZM303.2,27.71a5.88,5.88,0,0,1,.64-1.77,5.68,5.68,0,0,1,1.44-1.72A6.19,6.19,0,0,1,307.6,23a7.65,7.65,0,0,1,3.34-.09,9.32,9.32,0,0,1,2.25.64,5.75,5.75,0,0,1,1.74,1.16,4.13,4.13,0,0,1,1,1.73,5.07,5.07,0,0,1,.11,2.32,7.46,7.46,0,0,1-.75,2.25,5.44,5.44,0,0,1-1.54,1.8,6.23,6.23,0,0,1-2.32,1.09,7.93,7.93,0,0,1-3.13.05A6.25,6.25,0,0,1,304,31.82,5.37,5.37,0,0,1,303.2,27.71Z" transform="translate(-51.87 -1.45)"/></g><g class="cls-1"><path class="cls-2" d="M306.53,74.54c0-.12.19-.81.51-2.08s.79-2.95,1.42-5,1.35-4.51,2.17-7.25,1.78-5.62,2.87-8.62,2.28-6.08,3.57-9.21,2.67-6.15,4.15-9.07A84.75,84.75,0,0,1,326,25.13a39.88,39.88,0,0,1,5.17-6.41,18.68,18.68,0,0,1,5.58-3.91,9.63,9.63,0,0,1,5.93-.65,8.57,8.57,0,0,1,2.37.9,6.87,6.87,0,0,1,2.09,1.79,7.19,7.19,0,0,1,1.28,2.76,8.67,8.67,0,0,1-.05,3.82,20,20,0,0,1-1.6,4.53,47.64,47.64,0,0,1-3,5.24c-1.2,1.83-2.56,3.72-4.07,5.65s-3.13,3.85-4.85,5.73-3.48,3.72-5.31,5.51S325.83,53.53,324,55l-.18.53A10.84,10.84,0,0,1,325,55.4a3.54,3.54,0,0,1,.78.07,3.14,3.14,0,0,1,.76.23c.18.09.35.19.5.28l.46.27a2.66,2.66,0,0,0,.62.2,21.06,21.06,0,0,0,6.19.42,23.69,23.69,0,0,0,4.78-.9,16.55,16.55,0,0,0,4.19-1.91L340.8,62.3a22.31,22.31,0,0,1-5.15,1,41.91,41.91,0,0,1-4.8.11,47.16,47.16,0,0,1-5-.51,44.81,44.81,0,0,1,1.44,5.2,38.72,38.72,0,0,1,.72,5,19.08,19.08,0,0,1-.31,5.4q-.06.31-.36,1.29c-.2.65-.46,1.44-.81,2.38s-.76,1.95-1.26,3.07a33.32,33.32,0,0,1-1.75,3.33,24.84,24.84,0,0,1-2.24,3.14,14.63,14.63,0,0,1-2.71,2.53,9.85,9.85,0,0,1-3.21,1.51,7.84,7.84,0,0,1-3.71.07,6.38,6.38,0,0,1-3.11-1.53,7.89,7.89,0,0,1-1.92-2.81,14.22,14.22,0,0,1-1-3.74,27.68,27.68,0,0,1-.21-4.32,43.73,43.73,0,0,1,.38-4.52C306,77.39,306.24,75.93,306.53,74.54Zm12.81-16.25c-.1,0-.25.22-.48.72a14.82,14.82,0,0,0-.67,1.92c-.23.78-.55,1.89-1,3.34l-1,3.54c-.27.92-.51,1.8-.73,2.63s-.37,1.48-.47,2q-1,5.07-1.45,8.1a42.69,42.69,0,0,0-.45,4.65,5.5,5.5,0,0,0,.25,2.15,1,1,0,0,0,.65.62,2.23,2.23,0,0,0,2.11-.68,8.33,8.33,0,0,0,1.63-2.49A23.55,23.55,0,0,0,319,81.27c.35-1.29.64-2.52.89-3.72.16-.8.34-1.79.53-3s.38-2.46.57-3.84.3-2.95.36-4.72a11.5,11.5,0,0,0-.43-4.12c-.35-1-.62-1.8-.82-2.49S319.62,58.34,319.34,58.29Zm16.07-34.24a85.83,85.83,0,0,0-5.11,8,67.48,67.48,0,0,0-3.16,6.34q-1.2,2.81-1.91,5c-.47,1.44-.91,2.78-1.33,4q3-3.51,6.14-6.77c2.08-2.18,3.93-4.25,5.56-6.19a69.19,69.19,0,0,0,4.31-5.73,13.91,13.91,0,0,0,2.15-4.11,5.35,5.35,0,0,0,0-2.77,1.88,1.88,0,0,0-1.53-1.19,3.19,3.19,0,0,0-2.71.3A24.79,24.79,0,0,0,335.41,24.05Z" transform="translate(-51.87 -1.45)"/></g><g class="cls-1"><path class="cls-3" d="M306.53,74.54c0-.12.19-.81.51-2.08s.79-2.95,1.42-5,1.35-4.51,2.17-7.25,1.78-5.62,2.87-8.62,2.28-6.08,3.57-9.21,2.67-6.15,4.15-9.07A84.75,84.75,0,0,1,326,25.13a39.88,39.88,0,0,1,5.17-6.41,18.68,18.68,0,0,1,5.58-3.91,9.63,9.63,0,0,1,5.93-.65,8.57,8.57,0,0,1,2.37.9,6.87,6.87,0,0,1,2.09,1.79,7.19,7.19,0,0,1,1.28,2.76,8.67,8.67,0,0,1-.05,3.82,20,20,0,0,1-1.6,4.53,47.64,47.64,0,0,1-3,5.24c-1.2,1.83-2.56,3.72-4.07,5.65s-3.13,3.85-4.85,5.73-3.48,3.72-5.31,5.51S325.83,53.53,324,55l-.18.53A10.84,10.84,0,0,1,325,55.4a3.54,3.54,0,0,1,.78.07,3.14,3.14,0,0,1,.76.23c.18.09.35.19.5.28l.46.27a2.66,2.66,0,0,0,.62.2,21.06,21.06,0,0,0,6.19.42,23.69,23.69,0,0,0,4.78-.9,16.55,16.55,0,0,0,4.19-1.91L340.8,62.3a22.31,22.31,0,0,1-5.15,1,41.91,41.91,0,0,1-4.8.11,47.16,47.16,0,0,1-5-.51,44.81,44.81,0,0,1,1.44,5.2,38.72,38.72,0,0,1,.72,5,19.08,19.08,0,0,1-.31,5.4q-.06.31-.36,1.29c-.2.65-.46,1.44-.81,2.38s-.76,1.95-1.26,3.07a33.32,33.32,0,0,1-1.75,3.33,24.84,24.84,0,0,1-2.24,3.14,14.63,14.63,0,0,1-2.71,2.53,9.85,9.85,0,0,1-3.21,1.51,7.84,7.84,0,0,1-3.71.07,6.38,6.38,0,0,1-3.11-1.53,7.89,7.89,0,0,1-1.92-2.81,14.22,14.22,0,0,1-1-3.74,27.68,27.68,0,0,1-.21-4.32,43.73,43.73,0,0,1,.38-4.52C306,77.39,306.24,75.93,306.53,74.54Zm12.81-16.25c-.1,0-.25.22-.48.72a14.82,14.82,0,0,0-.67,1.92c-.23.78-.55,1.89-1,3.34l-1,3.54c-.27.92-.51,1.8-.73,2.63s-.37,1.48-.47,2q-1,5.07-1.45,8.1a42.69,42.69,0,0,0-.45,4.65,5.5,5.5,0,0,0,.25,2.15,1,1,0,0,0,.65.62,2.23,2.23,0,0,0,2.11-.68,8.33,8.33,0,0,0,1.63-2.49A23.55,23.55,0,0,0,319,81.27c.35-1.29.64-2.52.89-3.72.16-.8.34-1.79.53-3s.38-2.46.57-3.84.3-2.95.36-4.72a11.5,11.5,0,0,0-.43-4.12c-.35-1-.62-1.8-.82-2.49S319.62,58.34,319.34,58.29Zm16.07-34.24a85.83,85.83,0,0,0-5.11,8,67.48,67.48,0,0,0-3.16,6.34q-1.2,2.81-1.91,5c-.47,1.44-.91,2.78-1.33,4q3-3.51,6.14-6.77c2.08-2.18,3.93-4.25,5.56-6.19a69.19,69.19,0,0,0,4.31-5.73,13.91,13.91,0,0,0,2.15-4.11,5.35,5.35,0,0,0,0-2.77,1.88,1.88,0,0,0-1.53-1.19,3.19,3.19,0,0,0-2.71.3A24.79,24.79,0,0,0,335.41,24.05Z" transform="translate(-51.87 -1.45)"/></g><g class="cls-1"><path class="cls-2" d="M364.48,78.52c-2.5.72-4.73,1.33-6.68,1.85s-3.67.92-5.17,1.22a28.81,28.81,0,0,1-3.91.52,10.26,10.26,0,0,1-2.93-.24,7.26,7.26,0,0,1-4.14-2.74,12.18,12.18,0,0,1-2.13-5.35,29.27,29.27,0,0,1-.16-7.64,62.77,62.77,0,0,1,1.76-9.6c.35-1.37.77-2.8,1.28-4.32s1.06-3,1.65-4.48a16.47,16.47,0,0,1-1.52-.69c-.35-.18-.73-.38-1.13-.57s-.91-.43-1.54-.7-1.54-.63-2.73-1.1a3,3,0,0,1-1.16-.76,2.14,2.14,0,0,1-.46-.93,2.64,2.64,0,0,1,0-1c.06-.32.11-.59.17-.82a.93.93,0,0,1,.88-.65,7.38,7.38,0,0,1,1.82,0,21.2,21.2,0,0,1,2.33.43q1.26.3,2.4.63l2,.58a6.5,6.5,0,0,0,1.26.27,79.78,79.78,0,0,1,4.6-8.29,52.56,52.56,0,0,1,5.12-6.83,21.66,21.66,0,0,1,5.2-4.38,6.38,6.38,0,0,1,4.87-.91,4.81,4.81,0,0,1,2.46,1.5,7.38,7.38,0,0,1,1.51,2.71,11.67,11.67,0,0,1,.5,3.51,16.46,16.46,0,0,1-.51,3.91A14.05,14.05,0,0,1,368.79,37a25.56,25.56,0,0,1-2.24,3.37,39.33,39.33,0,0,1-2.9,3.32q-1.61,1.65-3.31,3.23a2.65,2.65,0,0,1,1,.22c.47.17,1,.34,1.63.52l2,.57,2.1.61,1.89.55,1.44.44a1.15,1.15,0,0,1,.8,1,4.77,4.77,0,0,1-.16,1.89,3.18,3.18,0,0,1-1.21,1.9,2,2,0,0,1-1.71.42l-13.09-3.35c-.89.73-1.79,1.46-2.69,2.16s-1.72,1.33-2.47,1.89c-.45,1.38-.88,2.75-1.3,4.09l-.53,1.81c-.19.61-.37,1.23-.55,1.83s-.34,1.2-.5,1.76-.3,1.09-.42,1.56a12.73,12.73,0,0,0-.45,3.19,5.81,5.81,0,0,0,.46,2.32,3.87,3.87,0,0,0,1.3,1.56,6,6,0,0,0,2,.9,6.2,6.2,0,0,0,1.87.11,19.66,19.66,0,0,0,2.6-.33c1-.18,2-.42,3.05-.72s2.17-.67,3.25-1.08,2.15-.86,3.17-1.36a25.84,25.84,0,0,0,2.85-1.62Zm.15-45.92c.06-.24.11-.53.16-.84a3.54,3.54,0,0,0,0-.92,1.56,1.56,0,0,0-1.3-1.35c-.59-.15-1.32.22-2.19,1.1a23.39,23.39,0,0,0-2.76,3.53q-1.46,2.21-2.94,4.92c-1,1.81-1.92,3.58-2.79,5.3l1,.35,1,.36c1-1,2-2,3.08-3.17s2.09-2.29,3-3.42a37.78,37.78,0,0,0,2.4-3.25A9.41,9.41,0,0,0,364.63,32.6Z" transform="translate(-51.87 -1.45)"/></g><g class="cls-1"><path class="cls-3" d="M364.48,78.52c-2.5.72-4.73,1.33-6.68,1.85s-3.67.92-5.17,1.22a28.81,28.81,0,0,1-3.91.52,10.26,10.26,0,0,1-2.93-.24,7.26,7.26,0,0,1-4.14-2.74,12.18,12.18,0,0,1-2.13-5.35,29.27,29.27,0,0,1-.16-7.64,62.77,62.77,0,0,1,1.76-9.6c.35-1.37.77-2.8,1.28-4.32s1.06-3,1.65-4.48a16.47,16.47,0,0,1-1.52-.69c-.35-.18-.73-.38-1.13-.57s-.91-.43-1.54-.7-1.54-.63-2.73-1.1a3,3,0,0,1-1.16-.76,2.14,2.14,0,0,1-.46-.93,2.64,2.64,0,0,1,0-1c.06-.32.11-.59.17-.82a.93.93,0,0,1,.88-.65,7.38,7.38,0,0,1,1.82,0,21.2,21.2,0,0,1,2.33.43q1.26.3,2.4.63l2,.58a6.5,6.5,0,0,0,1.26.27,79.78,79.78,0,0,1,4.6-8.29,52.56,52.56,0,0,1,5.12-6.83,21.66,21.66,0,0,1,5.2-4.38,6.38,6.38,0,0,1,4.87-.91,4.81,4.81,0,0,1,2.46,1.5,7.38,7.38,0,0,1,1.51,2.71,11.67,11.67,0,0,1,.5,3.51,16.46,16.46,0,0,1-.51,3.91A14.05,14.05,0,0,1,368.79,37a25.56,25.56,0,0,1-2.24,3.37,39.33,39.33,0,0,1-2.9,3.32q-1.61,1.65-3.31,3.23a2.65,2.65,0,0,1,1,.22c.47.17,1,.34,1.63.52l2,.57,2.1.61,1.89.55,1.44.44a1.15,1.15,0,0,1,.8,1,4.77,4.77,0,0,1-.16,1.89,3.18,3.18,0,0,1-1.21,1.9,2,2,0,0,1-1.71.42l-13.09-3.35c-.89.73-1.79,1.46-2.69,2.16s-1.72,1.33-2.47,1.89c-.45,1.38-.88,2.75-1.3,4.09l-.53,1.81c-.19.61-.37,1.23-.55,1.83s-.34,1.2-.5,1.76-.3,1.09-.42,1.56a12.73,12.73,0,0,0-.45,3.19,5.81,5.81,0,0,0,.46,2.32,3.87,3.87,0,0,0,1.3,1.56,6,6,0,0,0,2,.9,6.2,6.2,0,0,0,1.87.11,19.66,19.66,0,0,0,2.6-.33c1-.18,2-.42,3.05-.72s2.17-.67,3.25-1.08,2.15-.86,3.17-1.36a25.84,25.84,0,0,0,2.85-1.62Zm.15-45.92c.06-.24.11-.53.16-.84a3.54,3.54,0,0,0,0-.92,1.56,1.56,0,0,0-1.3-1.35c-.59-.15-1.32.22-2.19,1.1a23.39,23.39,0,0,0-2.76,3.53q-1.46,2.21-2.94,4.92c-1,1.81-1.92,3.58-2.79,5.3l1,.35,1,.36c1-1,2-2,3.08-3.17s2.09-2.29,3-3.42a37.78,37.78,0,0,0,2.4-3.25A9.41,9.41,0,0,0,364.63,32.6Z" transform="translate(-51.87 -1.45)"/></g><circle class="cls-4" cx="335.01" cy="9.75" r="7.02"/><g class="cls-1"><path d="M389.26,14.3a.13.13,0,0,1,0,.06.1.1,0,0,1-.05,0l-.11,0h-.32a.17.17,0,0,1-.1,0,.13.13,0,0,1-.07-.06.46.46,0,0,1-.05-.1l-.64-1.61-.24-.51a1.9,1.9,0,0,0-.31-.42,1.33,1.33,0,0,0-.44-.28,1.65,1.65,0,0,0-.62-.1h-.71v3a.08.08,0,0,1,0,0,.1.1,0,0,1-.05,0s-.06,0-.1,0h-.31s-.08,0-.1,0a.09.09,0,0,1-.06,0,.07.07,0,0,1,0,0V8.09a.28.28,0,0,1,.1-.25.32.32,0,0,1,.2-.07H387l.31,0A2.17,2.17,0,0,1,388,8a1.54,1.54,0,0,1,.49.37,1.33,1.33,0,0,1,.28.49,1.63,1.63,0,0,1,.1.59,1.55,1.55,0,0,1-.1.59,1.33,1.33,0,0,1-.27.46,2,2,0,0,1-.42.34,2.67,2.67,0,0,1-.54.24,1.69,1.69,0,0,1,.32.19,2.23,2.23,0,0,1,.26.27,4,4,0,0,1,.23.37c.07.14.14.29.21.46l.64,1.55a2.1,2.1,0,0,1,.09.25A.58.58,0,0,1,389.26,14.3Zm-1.15-4.75a1.29,1.29,0,0,0-.19-.72,1.09,1.09,0,0,0-.67-.42,1.61,1.61,0,0,0-.33-.06,3.25,3.25,0,0,0-.48,0h-.85v2.44h1a2.29,2.29,0,0,0,.69-.1,1.38,1.38,0,0,0,.48-.26A1,1,0,0,0,388,10,1.51,1.51,0,0,0,388.11,9.55Z" transform="translate(-51.87 -1.45)"/></g></svg>